<svg width="272" height="150" viewBox="0 0 272 150" fill="none" xmlns="http://www.w3.org/2000/svg">
<rect x="1" y="1" width="270" height="148" rx="7" stroke="#595959" stroke-width="2"/>
<path d="M61.9063 80.8532C61.286 80.8613 60.6704 80.7449 60.0958 80.5109C59.5212 80.2769 58.9994 79.9302 58.5611 79.4911C58.1228 79.052 57.777 78.5295 57.544 77.9546C57.3111 77.3796 57.1958 76.7637 57.205 76.1434C57.1948 75.5185 57.3095 74.898 57.5423 74.3181C57.7752 73.7381 58.1216 73.2106 58.5611 72.7663C59.0006 72.3221 59.5244 71.9701 60.1017 71.731C60.6791 71.4919 61.2984 71.3705 61.9233 71.374C62.6071 71.3448 63.2887 71.4703 63.9172 71.7412C64.5458 72.012 65.1051 72.4212 65.5535 72.9383L64.2613 74.3326C63.9769 73.9815 63.6181 73.698 63.2109 73.5025C62.8036 73.307 62.3581 73.2043 61.9063 73.2018C61.5418 73.2158 61.1838 73.3027 60.8535 73.4574C60.5231 73.6122 60.2271 73.8315 59.983 74.1026C59.7389 74.3736 59.5516 74.6909 59.4322 75.0356C59.3128 75.3803 59.2637 75.7454 59.2879 76.1094C59.2636 76.4834 59.3157 76.8584 59.441 77.2117C59.5663 77.565 59.7621 77.889 60.0166 78.1642C60.2711 78.4394 60.5789 78.6599 60.9213 78.8123C61.2637 78.9648 61.6336 79.0459 62.0083 79.0509C62.459 79.0378 62.9018 78.9296 63.3077 78.7332C63.7135 78.5369 64.0733 78.2569 64.3633 77.9117L65.6215 79.1529C65.176 79.7044 64.6086 80.145 63.9639 80.4401C63.3192 80.7351 62.6149 80.8765 61.9063 80.8532Z" fill="#595959"/>
<path d="M69.5747 80.8533H67.4919V71.3911H69.5747V73.61C69.7952 72.9386 70.2297 72.3581 70.8117 71.9573C71.3937 71.5566 72.091 71.3576 72.7968 71.3911V73.593H72.6778C70.85 73.593 69.5747 74.7832 69.5747 77.1891V80.8533Z" fill="#595959"/>
<path d="M83.7043 71.374L79.0965 83.4122H76.9881L77.9913 80.8618L74.0465 71.374H76.2654L78.9604 78.3793L81.5449 71.374H83.7043Z" fill="#595959"/>
<path d="M90.361 80.8533C89.7556 80.8585 89.1582 80.7147 88.6214 80.4344C88.0847 80.1542 87.6252 79.7462 87.2834 79.2465V83.4037H85.1666V71.374H87.2494V73.0743C87.5764 72.5534 88.0303 72.1241 88.5686 71.8267C89.107 71.5293 89.712 71.3735 90.327 71.374C92.4779 71.374 94.5778 73.0743 94.5778 76.1094C94.5778 79.1444 92.4949 80.8533 90.361 80.8533ZM89.8849 73.2019C89.5156 73.2124 89.1522 73.2976 88.8166 73.4523C88.4811 73.607 88.1803 73.828 87.9325 74.1021C87.6847 74.3761 87.4949 74.6975 87.3746 75.0469C87.2542 75.3962 87.2059 75.7663 87.2324 76.1349C87.2071 76.5028 87.2563 76.8719 87.3772 77.2203C87.498 77.5687 87.688 77.889 87.9358 78.1621C88.1835 78.4353 88.4838 78.6555 88.8188 78.8097C89.1537 78.9639 89.5163 79.0488 89.8849 79.0594C90.2483 79.0461 90.6051 78.9585 90.9333 78.802C91.2615 78.6454 91.5541 78.4232 91.7931 78.1492C92.0321 77.8751 92.2124 77.555 92.3229 77.2086C92.4334 76.8621 92.4717 76.4967 92.4354 76.1349C92.4692 75.7704 92.4281 75.4028 92.3148 75.0547C92.2014 74.7066 92.018 74.3854 91.776 74.1107C91.534 73.8361 91.2384 73.6138 90.9073 73.4575C90.5763 73.3012 90.2168 73.2142 89.8509 73.2019H89.8849Z" fill="#595959"/>
<path d="M99.1346 73.3549V77.8097C99.1108 77.9625 99.123 78.1187 99.1701 78.266C99.2172 78.4133 99.2981 78.5476 99.4062 78.6582C99.5143 78.7688 99.6467 78.8526 99.7929 78.9031C99.9391 78.9535 100.095 78.9692 100.248 78.9489H101.098V80.8532H99.6447C98.1229 80.8532 97.0943 80.1731 97.0943 78.1837V73.3549H95.8955V71.561H97.0517V69.0701H99.1346V71.561H101.064V73.3549H99.1346Z" fill="#595959"/>
<path d="M107.662 80.8532C107.032 80.8692 106.407 80.7588 105.821 80.5287C105.235 80.2986 104.701 79.9534 104.251 79.5136C103.801 79.0737 103.443 78.5481 103.2 77.9678C102.956 77.3875 102.831 76.7643 102.833 76.1349C102.806 75.1684 103.068 74.2158 103.586 73.3992C104.103 72.5826 104.853 71.9393 105.739 71.5517C106.625 71.1641 107.606 71.0498 108.558 71.2235C109.509 71.3973 110.386 71.8511 111.078 72.5268C111.769 73.2026 112.243 74.0695 112.439 75.0164C112.635 75.9632 112.543 76.947 112.176 77.8415C111.809 78.7361 111.184 79.5006 110.379 80.0372C109.575 80.5738 108.629 80.8579 107.662 80.8532ZM107.662 73.2019C107.287 73.1999 106.916 73.2751 106.572 73.4227C106.227 73.5704 105.917 73.7873 105.66 74.0601C105.404 74.3328 105.206 74.6556 105.079 75.0081C104.952 75.3607 104.9 75.7356 104.924 76.1094C104.906 76.4862 104.964 76.8629 105.094 77.2169C105.225 77.5709 105.426 77.8949 105.684 78.1695C105.943 78.4441 106.255 78.6637 106.6 78.8151C106.946 78.9666 107.318 79.0468 107.696 79.0509C108.071 79.054 108.444 78.9797 108.789 78.8326C109.135 78.6856 109.447 78.469 109.705 78.1962C109.964 77.9235 110.163 77.6005 110.291 77.2473C110.419 76.8941 110.474 76.5184 110.45 76.1434C110.467 75.7654 110.408 75.3878 110.276 75.0333C110.144 74.6787 109.942 74.3544 109.681 74.0798C109.421 73.8052 109.108 73.5859 108.761 73.4351C108.414 73.2842 108.04 73.2049 107.662 73.2019Z" fill="#595959"/>
<path d="M132.452 80.8533C131.823 80.8693 131.198 80.7589 130.613 80.5287C130.027 80.2985 129.494 79.9532 129.045 79.5132C128.595 79.0732 128.238 78.5476 127.996 77.9673C127.753 77.387 127.629 76.7639 127.632 76.135C127.606 75.1704 127.87 74.2203 128.388 73.4062C128.905 72.5921 129.655 71.9512 130.539 71.5656C131.424 71.1799 132.403 71.067 133.352 71.2414C134.301 71.4158 135.176 71.8696 135.866 72.5445C136.555 73.2194 137.028 74.0848 137.222 75.0299C137.417 75.9749 137.325 76.9565 136.958 77.849C136.592 78.7415 135.967 79.5042 135.164 80.0394C134.361 80.5747 133.417 80.8581 132.452 80.8533ZM132.452 73.2019C132.078 73.2 131.707 73.2752 131.362 73.4228C131.018 73.5705 130.708 73.7874 130.451 74.0602C130.194 74.3329 129.996 74.6556 129.87 75.0082C129.743 75.3608 129.69 75.7356 129.715 76.1095C129.696 76.4863 129.754 76.863 129.885 77.217C130.016 77.571 130.216 77.8949 130.475 78.1696C130.734 78.4442 131.045 78.6638 131.391 78.8152C131.736 78.9667 132.109 79.0469 132.486 79.051C132.862 79.0541 133.234 78.9798 133.58 78.8327C133.926 78.6857 134.237 78.469 134.496 78.1963C134.754 77.9236 134.954 77.6005 135.082 77.2474C135.21 76.8942 135.264 76.5184 135.241 76.1435C135.258 75.7655 135.199 75.3879 135.066 75.0333C134.934 74.6788 134.732 74.3545 134.472 74.0799C134.211 73.8053 133.898 73.586 133.551 73.4351C133.204 73.2843 132.831 73.205 132.452 73.2019Z" fill="#595959"/>
<path d="M149.71 71.3739C151.683 71.3739 152.89 72.6321 152.89 74.851V80.8531H150.807V75.4887C150.807 74.0434 150.135 73.2697 148.962 73.2697C147.789 73.2697 147.024 74.0604 147.024 75.5227V80.8531H144.941V75.4717C144.941 74.0604 144.252 73.2697 143.096 73.2697C141.94 73.2697 141.149 74.1199 141.149 75.5397V80.8531H139.066V71.3739H141.149V72.9382C141.439 72.4626 141.846 72.0693 142.331 71.7955C142.817 71.5216 143.364 71.3765 143.921 71.3739C144.478 71.3482 145.031 71.4857 145.511 71.7696C145.991 72.0535 146.378 72.4715 146.624 72.9722C146.97 72.4749 147.432 72.0694 147.969 71.7909C148.507 71.5124 149.105 71.3693 149.71 71.3739Z" fill="#595959"/>
<path d="M116.342 78.9488V80.003C116.343 80.0239 116.337 80.0446 116.327 80.0626C116.316 80.0807 116.301 80.0954 116.282 80.105L115.373 80.6321C115.354 80.6406 115.334 80.6449 115.313 80.6449C115.293 80.6449 115.272 80.6406 115.254 80.6321L114.344 80.105C114.326 80.0941 114.312 80.0791 114.302 80.0613C114.291 80.0436 114.285 80.0235 114.284 80.003V78.9488C114.285 78.9281 114.29 78.9078 114.301 78.8899C114.311 78.872 114.326 78.8571 114.344 78.8468L115.254 78.3197C115.271 78.3072 115.292 78.3005 115.313 78.3005C115.334 78.3005 115.355 78.3072 115.373 78.3197L116.282 78.8468C116.302 78.8555 116.318 78.87 116.328 78.8883C116.339 78.9066 116.344 78.9277 116.342 78.9488Z" fill="#595959"/>
<path d="M122.667 80.853C122.046 80.8466 121.433 80.7162 120.864 80.4695C120.294 80.2228 119.78 79.8649 119.351 79.4166C118.921 78.9684 118.586 78.4389 118.364 77.8592C118.142 77.2795 118.039 76.6614 118.059 76.0411C118.061 75.4161 118.188 74.7979 118.432 74.2226C118.677 73.6473 119.033 73.1266 119.481 72.691C119.93 72.2555 120.46 71.9139 121.042 71.6862C121.624 71.4585 122.246 71.3494 122.871 71.3653C123.556 71.3501 124.235 71.4889 124.859 71.7714C125.483 72.054 126.035 72.473 126.476 72.9976L125.217 74.3663C124.931 74.0085 124.569 73.7185 124.158 73.5171C123.746 73.3157 123.295 73.208 122.837 73.2016C122.472 73.2103 122.112 73.2917 121.779 73.4411C121.446 73.5905 121.146 73.8049 120.896 74.0717C120.647 74.3385 120.453 74.6523 120.327 74.9949C120.2 75.3374 120.143 75.7018 120.159 76.0666C120.129 76.4403 120.175 76.8162 120.294 77.1716C120.414 77.527 120.604 77.8544 120.853 78.1342C121.103 78.4139 121.407 78.6401 121.746 78.7991C122.086 78.9581 122.454 79.0466 122.828 79.0592C123.279 79.0539 123.724 78.9544 124.134 78.767C124.544 78.5795 124.91 78.3084 125.209 77.971L126.442 79.2292C125.981 79.7735 125.4 80.2034 124.745 80.4852C124.09 80.7669 123.379 80.8929 122.667 80.853Z" fill="#595959"/>
<path d="M40.2019 63.595L30 69.495V81.3037L40.2019 87.2038L50.4037 81.3037V69.495L40.2019 63.595ZM40.2019 63.595L30 69.495V81.3037L40.2019 87.2038L50.4037 81.3037V69.495L40.2019 63.595Z" fill="black"/>
<path d="M40.2019 63.595L30 69.495V81.3037L40.2019 87.2038L50.4037 81.3037V69.495L40.2019 63.595ZM36.1636 68.6959H44.2061L45.1753 72.8022H35.254L36.1636 68.6959ZM39.3942 80.9891L37.6939 82.6044H36.2146L32.5505 76.2113L35.2455 74.2049L37.6514 75.7522V78.4812L39.4537 80.1815L39.3942 80.9891ZM38.238 78.3027L38.5016 75.7522L37.6514 73.4228H42.8373L41.9872 75.7097L42.2422 78.2601H38.238V78.3027ZM44.2486 82.5534H42.8033L41.103 80.9551V80.105L42.9054 78.4047V75.7522L45.2603 74.2219L47.9468 76.2453L44.2486 82.5534Z" fill="#595959"/>
<g style="mix-blend-mode:multiply">
<path d="M40.2019 63.595V68.6959H44.2061L45.1753 72.8022H40.2019V73.4228H42.8374L41.9872 75.7097L42.2422 78.2601H40.2019V87.1868L50.4037 81.2867V69.495L40.2019 63.595ZM44.2486 82.5534H42.8033L41.103 80.9551V80.105L42.9054 78.4047V75.7522L45.2603 74.2219L47.9468 76.2453L44.2486 82.5534Z" fill="url(#paint0_linear_258_10683)"/>
</g>
<path style="mix-blend-mode:multiply" d="M38.238 78.3027L38.5016 75.7522L37.6514 73.4228H40.2019V72.8022H35.254L36.1891 68.6959H40.2019V63.595L30 69.495V81.3037L40.2019 87.2038V78.3027H38.238ZM39.4197 81.0146L37.7194 82.6299H36.2146L32.5505 76.2113L35.2455 74.2049L37.6514 75.7522V78.4812L39.4537 80.1815L39.4197 81.0146Z" fill="url(#paint1_linear_258_10683)"/>
<path d="M163.347 63H162.879V87.799H163.347V63Z" fill="#595959"/>
<path d="M173.345 75.9224C173.333 75.2691 173.454 74.6203 173.7 74.015C173.946 73.4097 174.311 72.8604 174.775 72.4004C175.239 71.9404 175.792 71.5792 176.399 71.3385C177.007 71.0978 177.656 70.9827 178.31 71C179.004 70.9646 179.699 71.0775 180.347 71.3311C180.995 71.5847 181.581 71.9731 182.067 72.4708L180.733 74.001C180.089 73.3403 179.214 72.956 178.293 72.9298C177.914 72.9373 177.542 73.0207 177.196 73.175C176.851 73.3294 176.54 73.5515 176.283 73.8283C176.025 74.105 175.826 74.4308 175.696 74.7861C175.567 75.1415 175.51 75.5192 175.53 75.8969C175.508 76.2764 175.563 76.6563 175.691 77.0142C175.819 77.372 176.018 77.7003 176.276 77.9796C176.534 78.2589 176.845 78.4833 177.192 78.6397C177.538 78.796 177.913 78.8809 178.293 78.8894C178.765 78.8856 179.231 78.7848 179.662 78.5932C180.094 78.4016 180.481 78.1234 180.801 77.7757L182.178 79.153C181.698 79.7144 181.096 80.1592 180.418 80.4538C179.741 80.7484 179.005 80.885 178.267 80.8533C177.615 80.8697 176.967 80.7533 176.362 80.5112C175.757 80.269 175.207 79.9063 174.747 79.445C174.286 78.9837 173.925 78.4335 173.683 77.8279C173.442 77.2223 173.327 76.574 173.345 75.9224Z" fill="#595959"/>
<path d="M187.882 71.0679H189.829L193.918 80.6576H191.725L190.875 78.5237H186.854L186.003 80.6576H183.87L187.882 71.0679ZM190.084 76.6704L188.826 73.5843L187.559 76.6704H190.084Z" fill="#595959"/>
<path d="M196.452 71.136H200.346C202.615 71.136 203.993 72.4792 203.993 74.4261C203.993 76.6365 202.292 77.7757 200.142 77.7757H198.552V80.6322H196.452V71.136ZM200.21 75.9394C200.415 75.9644 200.624 75.9459 200.823 75.885C201.021 75.8241 201.204 75.7222 201.36 75.586C201.517 75.4497 201.643 75.282 201.73 75.0939C201.817 74.9058 201.864 74.7015 201.867 74.4941C201.867 73.5589 201.213 73.0488 200.167 73.0488H198.552V75.9649L200.21 75.9394Z" fill="#595959"/>
<path d="M207.266 71.136H209.383V80.6577H207.283L207.266 71.136Z" fill="#595959"/>
<path d="M215.589 73.0658H212.69V71.136H220.588V73.0658H217.689V80.6577H215.589V73.0658Z" fill="#595959"/>
<path d="M225.587 71.0679H227.525L231.606 80.6576H229.412L228.562 78.5237H224.515L223.665 80.6576H221.523L225.587 71.0679ZM227.797 76.6704L226.53 73.5843L225.264 76.6704H227.797Z" fill="#595959"/>
<path d="M234.156 71.136H236.256V78.7874H241V80.6917H234.156V71.136Z" fill="#595959"/>
<defs>
<linearGradient id="paint0_linear_258_10683" x1="45.3368" y1="84.6618" x2="45.3368" y2="66.0859" gradientUnits="userSpaceOnUse">
<stop/>
<stop offset="1" stop-color="#002D74" stop-opacity="0"/>
</linearGradient>
<linearGradient id="paint1_linear_258_10683" x1="35.1094" y1="84.6618" x2="35.1094" y2="66.0859" gradientUnits="userSpaceOnUse">
<stop stop-color="#002D74" stop-opacity="0"/>
<stop offset="1"/>
</linearGradient>
</defs>
</svg>
