<?xml version="1.0" encoding="utf-8"?>
<!-- Generator: Adobe Illustrator 28.2.0, SVG Export Plug-In . SVG Version: 6.00 Build 0)  -->
<svg version="1.1" id="Layer_1" xmlns="http://www.w3.org/2000/svg" xmlns:xlink="http://www.w3.org/1999/xlink" x="0px" y="0px"
	 viewBox="0 0 60 60" style="enable-background:new 0 0 60 60;" xml:space="preserve">
<style type="text/css">
	.st0{fill:#FFFFFF;}
</style>
<g>
	<g>
		<circle class="st0" cx="30" cy="30" r="30"/>
		<path d="M30.1,34.8c0.6,0,1.3-0.1,1.9-0.4c0.3-0.1,0.5-0.3,0.8-0.5c0.3-0.2,0.5-0.4,0.7-0.6c0.7-0.7,1.1-1.5,1.3-2.5
			c0.1-0.7,0.1-1.3,0-2c-0.2-0.9-0.6-1.8-1.3-2.5c-0.2-0.2-0.4-0.4-0.7-0.6c-0.3-0.2-0.5-0.3-0.8-0.5c-0.6-0.3-1.2-0.4-1.9-0.4V11.7
			c1.2,0,2.5,0.1,3.7,0.4c2.3,0.5,4.5,1.4,6.5,2.8c3.3,2.2,5.7,5.4,7,9c1.3,3.7,1.4,7.7,0.3,11.5c-1.1,3.7-3.5,7-6.6,9.4
			c-3.1,2.3-7,3.6-10.9,3.6V34.8z M16,48.2V11.6h11.7v8.2V40v8.2L16,48.2z"/>
	</g>
</g>
</svg>
