<svg width="272" height="150" viewBox="0 0 272 150" fill="none" xmlns="http://www.w3.org/2000/svg">
<rect x="1" y="1" width="270" height="148" rx="7" stroke="#595959" stroke-width="2"/>
<path d="M140.026 98C131.676 98 131.157 93.0548 132.699 87.432H139.442C138.785 90.5355 138.366 93.144 142.076 93.144C144.355 93.144 145.785 91.6633 146.248 89.4564C147.481 83.6105 133.984 83.2535 136.026 73.5821C137.098 68.503 140.364 64.4544 148.58 64.4544C155.145 64.4544 157.776 67.4199 155.899 74.215H149.334C149.845 71.785 149.966 69.3103 147.243 69.3103C145.056 69.3103 143.506 70.5274 143.03 72.7708C141.729 78.9331 155.415 78.3935 153.261 88.6004C151.484 97.0101 145.161 98 140.026 98Z" fill="#595959"/>
<path d="M179.444 97.4604L186.303 64.9899H203.896L202.841 69.9797H191.99L190.299 77.9878H200.304L199.248 82.9777H189.244L187.242 92.4665H198.451L197.396 97.4604H179.444Z" fill="#595959"/>
<path d="M172.887 77.9878L175.63 64.9899H182.372L175.517 97.4604H168.779L171.836 82.9777H164.111L161.05 97.4604H154.308L161.163 64.9899H167.905L165.162 77.9878H172.887Z" fill="#595959"/>
<path d="M122.594 74.211L123.955 97.4604H131.06L129.163 64.9899H120.278L104.49 97.4604H111.288L122.594 74.211Z" fill="#595959"/>
<path d="M217.816 64.9858H206.563C204.275 75.8093 201.991 86.6329 199.707 97.4564H210.691C222.214 97.4564 223.865 86.0365 224.921 81.0426C227.059 70.9249 226.657 64.9858 217.816 64.9858ZM218.049 81.2252C216.33 89.3671 214.872 92.4706 210.763 92.4706H207.505C209.088 84.9736 210.671 77.4767 212.254 69.9838H215.738C220.426 69.9838 219.314 75.2454 218.053 81.2252H218.049Z" fill="#595959"/>
<path d="M102.887 97.4604L109.742 64.9899H102.999L100.257 77.9878H92.5315L95.2743 64.9899H88.5321L81.673 97.4604H88.4193L91.4763 82.9777H99.2013L96.1443 97.4604H102.887Z" fill="#595959"/>
<path d="M83.433 69.9797L84.4883 64.9858H77.75L80.4888 52H73.7465L71.0037 64.9899H63.2786L66.0215 52H59.2792L56.5364 64.9899H49.7981L48.7428 69.9838H55.4811L53.7935 77.9878H47.0552L46 82.9817H52.7383L49.6813 97.4645H56.4236L59.4806 82.9817H67.2056L64.1486 97.4645H70.8909L73.9519 82.9817H80.6902L81.7455 77.9878H75.0072L76.6988 69.9838H83.4371L83.433 69.9797ZM68.2609 77.9838H60.5358L62.2274 69.9797H69.9484L68.2609 77.9838Z" fill="#595959"/>
</svg>
