<svg width="105" height="98" viewBox="0 0 105 98" fill="none" xmlns="http://www.w3.org/2000/svg">
<path d="M58.5241 97.4445C45.5381 97.4445 34.6818 86.3283 28.9161 69.1346C34.578 71.0565 40.9151 72.4071 47.7198 73.1343C50.9403 78.6405 54.8361 81.8611 58.5241 81.8611C62.2122 81.8611 66.056 78.6405 69.2766 73.1343C71.8218 68.8229 74.0035 63.109 75.354 56.4081C76.4448 51.3175 77.0682 45.6036 77.0682 39.5261C77.0682 33.4486 76.4448 27.7866 75.354 22.644C82.1067 24.0466 87.7686 26.2282 92.08 28.7735C92.4436 32.2538 92.6514 35.838 92.6514 39.5261C92.6514 43.2142 92.4436 46.8503 92.08 50.3306C91.3528 57.1354 90.0022 63.4726 88.0803 69.1346C82.3145 86.3283 71.5102 97.4445 58.5241 97.4445Z" fill="url(#paint0_angular_1_333)"/>
<path d="M0.556092 39.5266C0.556093 26.5404 11.6721 15.684 28.8656 9.91809C26.9437 15.5801 25.5931 21.9173 24.8659 28.7221C19.3598 31.9427 16.1393 35.8385 16.1393 39.5266C16.1393 43.2147 19.3598 47.0586 24.8659 50.2792C29.1772 52.8245 34.8911 55.0061 41.5919 56.3567C46.6824 57.4475 52.3962 58.0709 58.4737 58.0709C64.5511 58.0709 70.213 57.4475 75.3555 56.3567C73.953 63.1095 71.7713 68.7715 69.2261 73.0829C65.7458 73.4465 62.1617 73.6543 58.4737 73.6543C54.7856 73.6543 51.1496 73.4465 47.6693 73.0829C40.8646 72.3557 34.5275 71.0051 28.8656 69.0832C11.6721 63.3173 0.556092 52.5128 0.556092 39.5266Z" fill="url(#paint1_angular_1_333)"/>
<path d="M58.4705 -18.4442C71.4565 -18.4442 82.3128 -7.32806 88.0786 9.86565C82.4167 7.9437 76.0795 6.59313 69.2748 5.86591C66.0543 0.359765 62.1585 -2.86081 58.4705 -2.86081C54.7825 -2.86081 50.9386 0.359764 47.7181 5.86591C45.1728 10.1773 42.9912 15.8912 41.6406 22.5921C40.5498 27.6827 39.9265 33.3966 39.9265 39.4742C39.9265 45.5517 40.5498 51.2137 41.6406 56.3562C34.8879 54.9537 29.226 52.772 24.9146 50.2267C24.551 46.7464 24.3433 43.1622 24.3433 39.4742C24.3433 35.7861 24.551 32.15 24.9146 28.6697C25.6419 21.8649 26.9924 15.5276 28.9143 9.86565C34.6801 -7.32806 45.4845 -18.4442 58.4705 -18.4442Z" fill="url(#paint2_angular_1_333)"/>
<path d="M116.444 39.4737C116.444 52.4598 105.328 63.3163 88.1344 69.0822C90.0563 63.4202 91.4069 57.0829 92.1341 50.2782C97.6402 47.0576 100.861 43.1617 100.861 39.4737C100.861 35.7856 97.6402 31.9417 92.1341 28.7211C87.8228 26.1758 82.1089 23.9941 75.4081 22.6435C70.3176 21.5527 64.6038 20.9294 58.5263 20.9294C52.4489 20.9294 46.787 21.5527 41.6445 22.6435C43.047 15.8907 45.2287 10.2288 47.7739 5.91734C51.2542 5.55373 54.8383 5.34595 58.5263 5.34595C62.2144 5.34595 65.8504 5.55373 69.3307 5.91734C76.1354 6.64457 82.4725 7.99513 88.1344 9.91709C105.328 15.683 116.444 26.4875 116.444 39.4737Z" fill="url(#paint3_angular_1_333)"/>
<defs>
<radialGradient id="paint0_angular_1_333" cx="0" cy="0" r="1" gradientUnits="userSpaceOnUse" gradientTransform="translate(52.298 58.5177) rotate(18.9091) scale(42.6553 50.5571)">
<stop offset="0.0364583" stop-color="white"/>
<stop offset="0.40625" stop-color="white" stop-opacity="0"/>
<stop offset="0.755208" stop-color="white" stop-opacity="0"/>
<stop offset="0.807292" stop-color="white" stop-opacity="0"/>
<stop offset="1" stop-color="white"/>
</radialGradient>
<radialGradient id="paint1_angular_1_333" cx="0" cy="0" r="1" gradientUnits="userSpaceOnUse" gradientTransform="translate(39.4823 33.3004) rotate(108.909) scale(42.6558 50.5565)">
<stop offset="0.0364583" stop-color="white"/>
<stop offset="0.40625" stop-color="white" stop-opacity="0"/>
<stop offset="0.755208" stop-color="white" stop-opacity="0"/>
<stop offset="0.807292" stop-color="white" stop-opacity="0"/>
<stop offset="1" stop-color="white"/>
</radialGradient>
<radialGradient id="paint2_angular_1_333" cx="0" cy="0" r="1" gradientUnits="userSpaceOnUse" gradientTransform="translate(64.6966 20.4825) rotate(-161.091) scale(42.6553 50.5571)">
<stop offset="0.0364583" stop-color="white"/>
<stop offset="0.40625" stop-color="white" stop-opacity="0"/>
<stop offset="0.755208" stop-color="white" stop-opacity="0"/>
<stop offset="0.807292" stop-color="white" stop-opacity="0"/>
<stop offset="1" stop-color="white"/>
</radialGradient>
<radialGradient id="paint3_angular_1_333" cx="0" cy="0" r="1" gradientUnits="userSpaceOnUse" gradientTransform="translate(77.5177 45.6999) rotate(-71.0914) scale(42.6558 50.5565)">
<stop offset="0.0364583" stop-color="white"/>
<stop offset="0.40625" stop-color="white" stop-opacity="0"/>
<stop offset="0.755208" stop-color="white" stop-opacity="0"/>
<stop offset="0.807292" stop-color="white" stop-opacity="0"/>
<stop offset="1" stop-color="white"/>
</radialGradient>
</defs>
</svg>
