<svg width="272" height="150" viewBox="0 0 272 150" fill="none" xmlns="http://www.w3.org/2000/svg">
<rect x="1" y="1" width="270" height="148" rx="7" stroke="#595959" stroke-width="2"/>
<g clip-path="url(#clip0_71_1738)">
<path d="M102.854 83.2176L96.0363 67.8822L89.413 82.7644C88.5043 84.7055 87.7897 85.4175 86.0371 85.5466H81.1673L89.9981 65.6178H86.4934L89.0254 59.9883H95.9732C98.7002 59.9883 99.9343 60.8294 101.299 64.0647L108.052 79.1413V65.6178H105.645L102.724 59.9883H110.321C113.048 59.9883 114.282 60.8294 115.647 64.0647L122.335 79.2058L129.021 64.0647C130.449 60.8939 131.618 59.9883 134.347 59.9883H136.555V85.6119H130.776V72.9295L126.231 83.2185C125.252 85.0297 124.281 85.5473 122.268 85.5473C121.487 85.6287 120.699 85.4672 120.013 85.0849C119.327 84.7026 118.777 84.1183 118.437 83.412L113.762 72.9295V85.5473L106.685 85.6119C104.672 85.6119 103.828 85.0297 102.854 83.2176Z" fill="#595959"/>
<path d="M55 97L58.2465 89.6883H61.298C64.025 89.6883 64.6739 88.8472 66.0383 85.612L80.1928 53H88.7597L72.9205 89.6883H107.139L103.893 97H55Z" fill="#595959"/>
<path d="M217 97H168.108L164.862 89.6883H199.08L189.731 68.0121L183.432 82.1831C182.198 84.8362 181.547 85.6127 179.017 85.6773H174.797L176.614 81.6654C175.413 82.9343 173.964 83.9448 172.356 84.6347C170.748 85.3247 169.015 85.6795 167.264 85.6773L160.187 85.6127V68.5298H165.836V79.9824H167.327C169.221 79.9824 171.038 79.2325 172.377 77.8977C173.717 76.5628 174.469 74.7524 174.469 72.8646C174.469 70.9769 173.717 69.1664 172.377 67.8316C171.038 66.4967 169.221 65.7469 167.327 65.7469H160.25L157.33 60.1173H167.327C170.734 60.1251 174 61.4774 176.408 63.8783C178.818 66.2792 180.175 69.5333 180.183 72.9287C180.191 73.2751 180.17 73.6215 180.118 73.9641L186.286 60.1173L183.367 53H191.937L205.963 85.612C207.391 88.7827 207.975 89.6883 210.703 89.6883H213.755L217 97Z" fill="#595959"/>
<path d="M154.537 70.1466C154.981 69.2176 155.203 68.1989 155.186 67.1701C155.188 66.2346 155.006 65.3078 154.648 64.4431C154.29 63.5783 153.763 62.7926 153.1 62.1311C152.436 61.4696 151.647 60.9455 150.779 60.5888C149.912 60.2321 148.982 60.05 148.043 60.0528H139.603V65.6823H148.043C148.422 65.6823 148.785 65.8323 149.053 66.0993C149.321 66.3663 149.471 66.7284 149.471 67.106C149.471 67.4836 149.321 67.8457 149.053 68.1127C148.785 68.3797 148.422 68.5297 148.043 68.5297H139.603V85.5465L149.538 85.611C151.351 85.6129 153.118 85.041 154.583 83.9778C156.05 82.9146 157.139 81.415 157.695 79.6951C158.251 77.9752 158.245 76.1239 157.677 74.4078C157.109 72.6918 156.009 71.1997 154.536 70.1466H154.537ZM149.538 79.917H145.253V74.2238H149.6C149.978 74.2232 150.353 74.2976 150.702 74.4426C151.051 74.5875 151.368 74.8001 151.634 75.0679C151.9 75.3358 152.11 75.6537 152.252 76.003C152.394 76.3525 152.465 76.7265 152.46 77.1035C152.456 77.4803 152.377 77.8527 152.227 78.1988C152.077 78.545 151.86 78.858 151.588 79.1198C151.316 79.3816 150.994 79.5869 150.642 79.7239C150.289 79.8609 149.913 79.9268 149.535 79.9178L149.538 79.917Z" fill="#595959"/>
<path d="M118.881 94.8745C118.618 95.1728 118.294 95.411 117.93 95.5727C117.52 95.7509 117.075 95.8387 116.628 95.8299C116.204 95.8342 115.783 95.7594 115.386 95.6094C115.019 95.4693 114.685 95.2568 114.403 94.9847C114.119 94.7103 113.895 94.381 113.743 94.0171C113.581 93.6234 113.501 93.2013 113.506 92.7759C113.501 92.3443 113.584 91.9164 113.751 91.5183C113.903 91.1556 114.129 90.8287 114.415 90.5589C114.704 90.2916 115.044 90.0848 115.415 89.9505C115.811 89.8065 116.23 89.7345 116.652 89.7382C117.065 89.7387 117.474 89.8119 117.861 89.9545C118.23 90.0812 118.561 90.2988 118.824 90.5874L117.873 91.5346C117.742 91.3553 117.563 91.2166 117.357 91.1345C117.149 91.0484 116.926 91.004 116.701 91.0038C116.469 91.0011 116.239 91.047 116.025 91.1386C115.825 91.2249 115.645 91.3514 115.497 91.5101C115.347 91.6724 115.23 91.8624 115.153 92.0695C115.069 92.2955 115.027 92.5349 115.03 92.7759C115.027 93.0208 115.069 93.2643 115.153 93.4944C115.228 93.7014 115.343 93.8914 115.493 94.0538C115.639 94.2098 115.816 94.3336 116.013 94.4171C116.223 94.5058 116.449 94.5503 116.677 94.5478C116.93 94.5537 117.18 94.4976 117.406 94.3845C117.604 94.284 117.775 94.1386 117.906 93.9599L118.881 94.8745ZM123.486 95.6747V89.8933H124.895V94.458H127.141V95.6747H123.486ZM135.736 95.6747L135.286 94.5397H133.04L132.614 95.6747H131.09L133.524 89.8933H134.884L137.293 95.6747H135.736ZM134.179 91.4367L133.442 93.421H134.9L134.179 91.4367ZM144.848 91.3958C144.723 91.2391 144.561 91.1144 144.377 91.0324C144.202 90.9471 144.01 90.901 143.816 90.8977C143.721 90.8978 143.626 90.906 143.533 90.9222C143.442 90.9369 143.354 90.9688 143.275 91.0161C143.198 91.062 143.133 91.1232 143.082 91.1958C143.027 91.2793 143 91.3778 143.004 91.4774C143.001 91.5632 143.023 91.6482 143.066 91.7225C143.112 91.7926 143.174 91.8514 143.246 91.8939C143.336 91.9479 143.43 91.993 143.529 92.0286C143.638 92.0695 143.761 92.1117 143.897 92.1552C144.094 92.2205 144.299 92.2927 144.512 92.3717C144.72 92.4479 144.916 92.5537 145.094 92.686C145.27 92.8188 145.417 92.9855 145.528 93.1759C145.65 93.397 145.709 93.6467 145.701 93.8986C145.708 94.1963 145.645 94.4914 145.516 94.7602C145.4 94.995 145.232 95.2003 145.025 95.3604C144.811 95.521 144.569 95.6402 144.311 95.7114C144.042 95.7879 143.763 95.8263 143.483 95.8258C143.072 95.8265 142.664 95.7531 142.279 95.6094C141.913 95.4791 141.58 95.2668 141.308 94.9888L142.226 94.0579C142.38 94.2415 142.572 94.3903 142.787 94.4947C143.001 94.6071 143.238 94.6674 143.48 94.6703C143.582 94.6705 143.684 94.6596 143.783 94.6377C143.874 94.6185 143.963 94.5826 144.041 94.5315C144.115 94.4819 144.176 94.4145 144.217 94.3355C144.263 94.2444 144.286 94.1434 144.282 94.0415C144.286 93.9427 144.257 93.8454 144.201 93.7639C144.137 93.6798 144.058 93.6091 143.967 93.5557C143.848 93.4849 143.722 93.4274 143.59 93.3842C143.44 93.3325 143.27 93.2767 143.078 93.2168C142.892 93.1569 142.711 93.086 142.533 93.0045C142.36 92.9252 142.198 92.8191 142.058 92.6901C141.916 92.5587 141.802 92.4004 141.722 92.2247C141.632 92.0146 141.589 91.7876 141.595 91.5591C141.587 91.2717 141.655 90.9873 141.791 90.7343C141.919 90.5101 142.095 90.3174 142.308 90.171C142.527 90.0212 142.771 89.912 143.029 89.8484C143.294 89.7806 143.567 89.7464 143.84 89.7463C144.182 89.7489 144.522 89.8097 144.844 89.9259C145.177 90.0397 145.484 90.2204 145.745 90.4567L144.848 91.3958ZM153.698 91.3958C153.572 91.2391 153.41 91.1144 153.226 91.0324C153.052 90.9471 152.86 90.901 152.665 90.8977C152.571 90.8978 152.476 90.906 152.382 90.9222C152.292 90.9369 152.203 90.9688 152.125 91.0161C152.048 91.062 151.983 91.1232 151.932 91.1958C151.877 91.2793 151.85 91.3778 151.854 91.4774C151.851 91.5632 151.872 91.6482 151.916 91.7225C151.962 91.7926 152.024 91.8514 152.096 91.8939C152.186 91.9479 152.28 91.993 152.378 92.0286C152.488 92.0695 152.611 92.1117 152.747 92.1552C152.944 92.2205 153.148 92.2927 153.362 92.3717C153.57 92.4479 153.766 92.5537 153.944 92.686C154.119 92.8188 154.267 92.9855 154.378 93.1759C154.499 93.397 154.559 93.6467 154.55 93.8986C154.557 94.1963 154.494 94.4914 154.365 94.7602C154.25 94.995 154.081 95.2003 153.873 95.3604C153.661 95.521 153.419 95.6402 153.161 95.7114C152.892 95.7879 152.613 95.8263 152.333 95.8258C151.922 95.8265 151.514 95.7531 151.129 95.6094C150.762 95.4791 150.43 95.2668 150.158 94.9888L151.075 94.0579C151.23 94.2415 151.421 94.3903 151.637 94.4947C151.851 94.6071 152.088 94.6674 152.329 94.6703C152.432 94.6705 152.533 94.6596 152.633 94.6377C152.724 94.6185 152.812 94.5826 152.89 94.5315C152.965 94.4819 153.025 94.4145 153.067 94.3355C153.113 94.2444 153.136 94.1434 153.132 94.0415C153.136 93.9427 153.107 93.8454 153.051 93.7639C152.987 93.6798 152.907 93.6091 152.817 93.5557C152.698 93.4849 152.572 93.4274 152.44 93.3842C152.29 93.3325 152.119 93.2767 151.928 93.2168C151.742 93.1569 151.561 93.086 151.383 93.0045C151.209 92.9252 151.048 92.8191 150.907 92.6901C150.766 92.5587 150.651 92.4004 150.572 92.2247C150.482 92.0146 150.438 91.7876 150.444 91.5591C150.436 91.2717 150.504 90.9873 150.641 90.7343C150.768 90.5101 150.945 90.3174 151.158 90.171C151.376 90.0212 151.621 89.912 151.879 89.8484C152.144 89.7806 152.416 89.7464 152.689 89.7463C153.032 89.7489 153.371 89.8097 153.694 89.9259C154.027 90.0397 154.334 90.2204 154.595 90.4567L153.698 91.3958Z" fill="#595959"/>
</g>
<defs>
<clipPath id="clip0_71_1738">
<rect width="162" height="44" fill="white" transform="translate(55 53)"/>
</clipPath>
</defs>
</svg>
