<?xml version="1.0" encoding="utf-8"?>
<!-- Generator: Adobe Illustrator 28.2.0, SVG Export Plug-In . SVG Version: 6.00 Build 0)  -->
<svg version="1.1" id="Layer_1" xmlns="http://www.w3.org/2000/svg" xmlns:xlink="http://www.w3.org/1999/xlink" x="0px" y="0px"
	 viewBox="0 0 60 60" style="enable-background:new 0 0 60 60;" xml:space="preserve">
<style type="text/css">
	.st0{fill:#FFFFFF;}
	.st1{fill-rule:evenodd;clip-rule:evenodd;fill:#2DB8E3;}
	.st2{fill-rule:evenodd;clip-rule:evenodd;fill:#3840C7;}
</style>
<circle class="st0" cx="30" cy="30" r="30"/>
<g>
	<path class="st1" d="M35.7,18c-0.2-0.2-0.5-0.4-0.8-0.6c-0.3-0.1-0.7-0.2-1-0.2h0c-0.3,0-0.7,0.1-1,0.2c-0.3,0.1-0.6,0.3-0.8,0.6
		L11.8,38.3c-0.2,0.2-0.4,0.5-0.6,0.8c-0.1,0.3-0.2,0.7-0.2,1c0,0.7,0.3,1.3,0.8,1.8c0.2,0.2,0.5,0.4,0.8,0.6c0.3,0.1,0.7,0.2,1,0.2
		c0.7,0,1.3-0.3,1.8-0.8l20.2-20.3c0.5-0.5,0.8-1.1,0.8-1.8C36.4,19.1,36.1,18.5,35.7,18L35.7,18z"/>
	<path class="st2" d="M47.4,17.5c-0.5-0.2-1-0.2-1.5-0.1c-0.5,0.1-1,0.4-1.3,0.7L24.3,38.4c-0.5,0.5-0.8,1.1-0.8,1.8
		c0,0.7,0.3,1.3,0.8,1.8c0.5,0.5,1.1,0.8,1.8,0.8c0.7,0,1.3-0.3,1.8-0.8l15.8-15.9v14c0,0.7,0.3,1.3,0.8,1.8
		c0.5,0.5,1.1,0.8,1.8,0.8c0.7,0,1.3-0.3,1.8-0.8c0.5-0.5,0.8-1.1,0.8-1.8V19.9c0-0.5-0.2-1-0.4-1.4C48.3,18,47.9,17.7,47.4,17.5
		L47.4,17.5z"/>
</g>
</svg>
