<svg width="239" height="160" viewBox="0 0 239 160" fill="none" xmlns="http://www.w3.org/2000/svg">
<circle cx="161" cy="82" r="78" fill="#311850"/>
<path fill-rule="evenodd" clip-rule="evenodd" d="M23.416 41.3828H21.7504V43.3828V111.071V112.538L21.332 112.654L21.7504 112.783V113.071H22.6808L24.8684 113.748L84.2676 132.131L143.667 113.748L145.854 113.071H146.788V112.782L147.203 112.654L146.788 112.538V111.071V43.3828V41.3828H145.119V111.545L84.2677 130.575L23.416 111.556V41.3828Z" fill="url(#paint0_linear_16_19)" fill-opacity="0.8"/>
<path fill-rule="evenodd" clip-rule="evenodd" d="M31.4807 115.967L4.48118 123.457L0.914062 124.447L4.45043 125.541L84.0006 150.161L163.551 125.541L167.087 124.447L163.52 123.457L137.023 116.106L133.465 117.195L159.984 124.552L84.0006 148.067L8.01754 124.552L35.0244 117.059L31.4807 115.967Z" fill="white" fill-opacity="0.2"/>
<path d="M83.8555 79.0691L133.871 92.9447L83.8555 108.424L33.8404 92.9447L83.8555 79.0691Z" fill="url(#paint1_linear_16_19)"/>
<path d="M83.8555 57.8133L133.871 71.6889L83.8555 87.1678L33.8404 71.6889L83.8555 57.8133Z" fill="url(#paint2_linear_16_19)" fill-opacity="0.6"/>
<path d="M83.8555 36.1395L133.871 50.015L83.8555 65.494L33.8404 50.015L83.8555 36.1395Z" fill="url(#paint3_linear_16_19)" fill-opacity="0.3"/>
<ellipse cx="146" cy="111.5" rx="4" ry="3.5" fill="white"/>
<ellipse cx="22" cy="111.5" rx="4" ry="3.5" fill="white"/>
<ellipse cx="83.5" cy="131" rx="3.5" ry="4" fill="white"/>
<path d="M84 69L84 131" stroke="white" stroke-opacity="0.5" stroke-width="1.1" stroke-dasharray="7 5"/>
<defs>
<linearGradient id="paint0_linear_16_19" x1="84.2676" y1="41.3828" x2="84.2676" y2="132.131" gradientUnits="userSpaceOnUse">
<stop stop-color="white" stop-opacity="0"/>
<stop offset="1" stop-color="white"/>
</linearGradient>
<linearGradient id="paint1_linear_16_19" x1="58.8479" y1="73.0274" x2="58.8479" y2="117.952" gradientUnits="userSpaceOnUse">
<stop offset="0.223958" stop-color="#FF7A00"/>
<stop offset="1" stop-color="white" stop-opacity="0.6"/>
</linearGradient>
<linearGradient id="paint2_linear_16_19" x1="58.8479" y1="25.3578" x2="58.8479" y2="96.6964" gradientUnits="userSpaceOnUse">
<stop offset="0.223958" stop-color="#FF7A00"/>
<stop offset="1" stop-color="white" stop-opacity="0.6"/>
</linearGradient>
<linearGradient id="paint3_linear_16_19" x1="58.8479" y1="2.15809" x2="58.8479" y2="75.0226" gradientUnits="userSpaceOnUse">
<stop offset="0.223958" stop-color="#FF7A00"/>
<stop offset="1" stop-color="white" stop-opacity="0.6"/>
</linearGradient>
</defs>
</svg>
