<svg width="236" height="193" viewBox="0 0 236 193" fill="none" xmlns="http://www.w3.org/2000/svg">
<circle cx="139.5" cy="96.5" r="96.5" fill="#311850"/>
<path d="M159.82 126.772L159.83 126.778L159.84 126.784L172.84 134.081L172.66 148.988L172.66 149L172.66 149.012L172.84 163.919L159.84 171.216L159.83 171.222L159.82 171.228L147 178.837L134.18 171.228L134.17 171.222L134.16 171.216L121.16 163.919L121.34 149.012L121.34 149L121.34 148.988L121.16 134.081L134.16 126.784L134.17 126.778L134.18 126.772L147 119.163L159.82 126.772Z" stroke="white" stroke-opacity="0.8" stroke-width="2"/>
<path d="M66.8196 126.772L66.83 126.778L66.8405 126.784L79.8397 134.081L79.6601 148.988L79.6599 149L79.6601 149.012L79.8397 163.919L66.8405 171.216L66.83 171.222L66.8196 171.228L54 178.837L41.1804 171.228L41.17 171.222L41.1595 171.216L28.1603 163.919L28.3399 149.012L28.3401 149L28.3399 148.988L28.1603 134.081L41.1595 126.784L41.17 126.778L41.1804 126.772L54 119.163L66.8196 126.772Z" stroke="white" stroke-opacity="0.8" stroke-width="2"/>
<path d="M110.24 111.24L110.25 111.247L110.26 111.252L120.644 117.081L120.5 128.988L120.5 129L120.5 129.012L120.644 140.919L110.26 146.748L110.25 146.753L110.24 146.76L100 152.837L89.7604 146.76L89.75 146.753L89.7395 146.748L79.3564 140.919L79.4999 129.012L79.5001 129L79.4999 128.988L79.3564 117.081L89.7395 111.252L89.75 111.247L89.7604 111.24L100 105.163L110.24 111.24Z" stroke="white" stroke-opacity="0.2" stroke-width="2"/>
<path d="M112.82 52.7717L112.83 52.7779L112.84 52.7837L125.84 60.0814L125.66 74.9879L125.66 75L125.66 75.0121L125.84 89.9186L112.84 97.2163L112.83 97.2221L112.82 97.2283L100 104.837L87.1804 97.2283L87.17 97.2221L87.1595 97.2163L74.1603 89.9186L74.3399 75.0121L74.3401 75L74.3399 74.9879L74.1603 60.0814L87.1595 52.7837L87.17 52.7779L87.1804 52.7717L100 45.1629L112.82 52.7717Z" stroke="white" stroke-opacity="0.8" stroke-width="2"/>
<path d="M39 87.5L146.5 148L199 118.5" stroke="white" stroke-opacity="0.5" stroke-width="1.1" stroke-dasharray="7 5"/>
<path d="M161 88L53.5 148.5L1 119" stroke="white" stroke-opacity="0.5" stroke-width="1.1" stroke-dasharray="7 5"/>
<path d="M36 41L99.5 76.5L152 47" stroke="white" stroke-opacity="0.5" stroke-width="1.1" stroke-dasharray="7 5"/>
<path d="M147 179V147.5" stroke="white" stroke-opacity="0.5" stroke-width="1.2" stroke-dasharray="7 5"/>
<path d="M54 179V147.5" stroke="white" stroke-opacity="0.5" stroke-width="1.2" stroke-dasharray="7 5"/>
<path d="M100 106.5V75" stroke="white" stroke-opacity="0.5" stroke-width="1.2" stroke-dasharray="7 5"/>
<circle cx="198.5" cy="119.5" r="3.5" fill="#FF7A00"/>
<circle cx="146.5" cy="147.5" r="3.5" fill="#FF7A00"/>
<circle cx="121.5" cy="134.5" r="3.5" fill="#FF7A00"/>
<circle cx="38.5" cy="86.5" r="3.5" fill="#FF7A00"/>
<circle cx="53.5" cy="148.5" r="3.5" fill="#FF7A00"/>
<circle cx="99.5" cy="75.5" r="3.5" fill="#FF7A00"/>
</svg>
