<svg width="242" height="203" viewBox="0 0 242 203" fill="none" xmlns="http://www.w3.org/2000/svg">
<rect width="242" height="203" fill="#1E1E1E"/>
<g id="Frame 74" clip-path="url(#clip0_0_1)">
<rect width="1920" height="9834" transform="translate(-671 -2219)" fill="white"/>
<rect id="Rectangle 580" x="-641" y="-623" width="1860" height="1773" fill="#291346"/>
<rect id="Rectangle 600" x="-322.5" y="-35.5" width="596" height="440" rx="7.5" fill="#381B5B" stroke="#624784"/>
<g id="Component 1">
<circle id="Ellipse 46" cx="140.5" cy="101.5" r="101.5" fill="#311850"/>
<path id="Subtract" fill-rule="evenodd" clip-rule="evenodd" d="M21 89H19V91V139V140.867L18.6836 140.954L22.22 142.049L76.2514 158.771L130.283 142.049L133.819 140.954L133 140.727V139V91V89H131V91V139V139.567L126.478 141H126.502L126.716 141.059L108.744 146.621L76 157L21 139.577V139V91V89Z" fill="white" fill-opacity="0.8"/>
<path id="Subtract_2" fill-rule="evenodd" clip-rule="evenodd" d="M27.9585 143.984L3.56713 150.751L0 151.741L3.53636 152.835L76 175.262L148.464 152.835L152 151.741L148.433 150.751L124.499 144.111L120.941 145.2L144.897 151.846L76 173.168L7.10348 151.846L31.5022 145.077L27.9585 143.984Z" fill="white" fill-opacity="0.2"/>
<path id="Subtract_3" fill-rule="evenodd" clip-rule="evenodd" d="M75.8678 98.0755L26.166 111.864L75.8678 127.246L125.57 111.864L75.8678 98.0755ZM129.106 110.77L75.8678 96L22.6296 110.77L19.0625 111.759L22.5989 112.854L75.8678 129.34L129.137 112.854L132.673 111.759L129.106 110.77Z" fill="white" fill-opacity="0.8"/>
<path id="Subtract_4" fill-rule="evenodd" clip-rule="evenodd" d="M75.8678 76.0755L26.166 89.8642L75.8678 105.246L125.57 89.8642L75.8678 76.0755ZM129.106 88.7698L75.8678 74L22.6296 88.7698L19.0625 89.7594L22.5989 90.8539L75.8678 107.34L129.137 90.8539L132.673 89.7594L129.106 88.7698Z" fill="white" fill-opacity="0.8"/>
<path id="Vector 24" d="M76 106L76 158" stroke="white" stroke-opacity="0.8" stroke-width="2"/>
<path id="Rectangle 618" d="M90 72L107 67V108L90 113V72Z" fill="url(#paint0_linear_0_1)"/>
<path id="Rectangle 619" d="M70 72L87 67V108L70 113V72Z" fill="url(#paint1_linear_0_1)"/>
<path id="Rectangle 620" d="M50 72L67 67V108L50 113V72Z" fill="url(#paint2_linear_0_1)"/>
<circle id="Ellipse 53" cx="32" cy="130" r="3" fill="#D095FF"/>
<circle id="Ellipse 54" cx="46" cy="134" r="3" fill="#D095FF"/>
<circle id="Ellipse 55" cx="61" cy="138" r="3" fill="#D095FF"/>
<path id="Subtract_5" fill-rule="evenodd" clip-rule="evenodd" d="M75.8053 27L78.5667 27.9499L78.4361 28.5333L78.3056 29.1167L75.8053 28.2566L73.305 29.1167L73.1744 28.5333L73.0439 27.9499L75.8053 27ZM69.2296 29.8903L69.0991 29.3069L63.5764 31.2067L63.7069 31.7901L63.8374 32.3736L69.3602 30.4738L69.2296 29.8903ZM59.7621 33.1472L59.6316 32.5637L54.1088 34.4635L54.2394 35.047L54.3699 35.6304L59.8926 33.7306L59.7621 33.1472ZM50.2945 36.404L50.164 35.8206L44.6413 37.7204L44.7718 38.3038L44.9023 38.8872L50.4251 36.9874L50.2945 36.404ZM40.827 39.6608L40.6965 39.0774L35.1737 40.9772L35.3043 41.5606L35.4348 42.144L40.9575 40.2442L40.827 39.6608ZM31.3595 42.9176L31.2289 42.3342L25.7062 44.234L25.8367 44.8174L25.9672 45.4008L31.49 43.501L31.3595 42.9176ZM25.8505 48.536L25.7062 49.1144L31.2289 51.2337L31.3733 50.6553L31.5176 50.077L25.9949 47.9576L25.8505 48.536ZM35.3181 52.1692L35.1737 52.7476L40.6965 54.8669L40.8408 54.2885L40.9852 53.7101L35.4625 51.5908L35.3181 52.1692ZM50.164 58.5L44.6413 56.3807L44.7856 55.8023L44.93 55.2239L50.4527 57.3433L50.3084 57.9217L50.164 58.5ZM54.2532 59.4355L54.1088 60.0139L59.6316 62.1332L59.7759 61.5548L59.9203 60.9764L54.3975 58.8571L54.2532 59.4355ZM69.0991 65.7663L63.5764 63.647L63.7207 63.0686L63.8651 62.4902L69.3878 64.6096L69.2435 65.188L69.0991 65.7663ZM73.1883 66.7018L73.0439 67.2802L75.8053 68.3398L78.5667 67.2802L78.4223 66.7018L78.2779 66.1234L75.8053 67.0723L73.3326 66.1234L73.1883 66.7018ZM82.3671 65.188L82.5115 65.7663L88.0342 63.647L87.8898 63.0686L87.7455 62.4902L82.2227 64.6096L82.3671 65.188ZM97.5017 60.0139L91.979 62.1332L91.8346 61.5548L91.6903 60.9764L97.213 58.8571L97.3574 59.4355L97.5017 60.0139ZM101.302 57.9217L101.447 58.5L106.969 56.3807L106.825 55.8023L106.681 55.2239L101.158 57.3433L101.302 57.9217ZM116.437 52.7475L110.914 54.8669L110.77 54.2885L110.625 53.7101L116.148 51.5908L116.292 52.1692L116.437 52.7475ZM120.237 50.6553L120.382 51.2337L125.904 49.1144L125.76 48.536L125.616 47.9576L120.093 50.077L120.237 50.6553ZM125.774 44.8174L125.904 44.234L120.382 42.3342L120.251 42.9176L120.121 43.501L125.643 45.4008L125.774 44.8174ZM116.306 41.5606L116.437 40.9772L110.914 39.0774L110.784 39.6608L110.653 40.2442L116.176 42.144L116.306 41.5606ZM106.839 38.3038L106.969 37.7204L101.447 35.8206L101.316 36.404L101.185 36.9874L106.708 38.8872L106.839 38.3038ZM97.3712 35.047L97.5017 34.4635L91.979 32.5637L91.8485 33.1472L91.7179 33.7306L97.2407 35.6304L97.3712 35.047ZM87.9037 31.7901L88.0342 31.2067L82.5115 29.3069L82.3809 29.8903L82.2504 30.4738L87.7731 32.3736L87.9037 31.7901ZM129.719 46.1744L129.849 45.591L130.869 45.9417L131.74 46.2413L132.611 46.5409L131.747 46.8722L130.884 47.2036L129.849 47.6006L129.705 47.0222L129.644 46.7769L129.588 46.7578L129.612 46.6507L129.56 46.4438L129.668 46.4027L129.719 46.1744ZM21.9057 47.0222L21.7614 47.6006L20.7268 47.2036L19.8634 46.8722L19 46.5409L19.8709 46.2413L20.7418 45.9417L21.7614 45.591L21.8919 46.1744L21.943 46.4027L22.0501 46.4438L21.9985 46.6507L22.0224 46.7578L21.9669 46.7769L21.9057 47.0222Z" fill="white" fill-opacity="0.8"/>
<path id="Vector 25" d="M19.9375 46L19.9375 98" stroke="white" stroke-opacity="0.5" stroke-width="1.1" stroke-dasharray="7 5"/>
<path id="Vector 26" d="M75.9375 67L75.9375 119" stroke="white" stroke-opacity="0.5" stroke-width="1.1" stroke-dasharray="7 5"/>
<path id="Vector 27" d="M131.938 46L131.938 98" stroke="white" stroke-opacity="0.5" stroke-width="1.1" stroke-dasharray="7 5"/>
</g>
</g>
<defs>
<linearGradient id="paint0_linear_0_1" x1="98.5" y1="67" x2="98.5" y2="113" gradientUnits="userSpaceOnUse">
<stop offset="0.223958" stop-color="#FF7A00"/>
<stop offset="1" stop-color="white" stop-opacity="0.6"/>
</linearGradient>
<linearGradient id="paint1_linear_0_1" x1="78.5" y1="67" x2="78.5" y2="113" gradientUnits="userSpaceOnUse">
<stop offset="0.223958" stop-color="#FF7A00"/>
<stop offset="1" stop-color="white" stop-opacity="0.6"/>
</linearGradient>
<linearGradient id="paint2_linear_0_1" x1="58.5" y1="67" x2="58.5" y2="113" gradientUnits="userSpaceOnUse">
<stop offset="0.223958" stop-color="#FF7A00"/>
<stop offset="1" stop-color="white" stop-opacity="0.6"/>
</linearGradient>
<clipPath id="clip0_0_1">
<rect width="1920" height="9834" fill="white" transform="translate(-671 -2219)"/>
</clipPath>
</defs>
</svg>
