<svg width="164" height="41" viewBox="0 0 164 41" fill="none" xmlns="http://www.w3.org/2000/svg">
<g clip-path="url(#clip0_0_580)">
<path d="M24.8262 26.6909C24.4481 28.3351 23.9231 29.8354 23.2659 31.0905C22.9605 31.6741 22.6444 32.1658 22.3337 32.5722C21.6765 32.6082 21.0127 32.6282 20.345 32.6282C19.6772 32.6282 19.0121 32.6082 18.3549 32.5722C17.785 32.5402 17.2217 32.4963 16.6623 32.4376C16.1123 32.3803 15.5675 32.3084 15.0306 32.2258C13.2363 31.95 11.5226 31.5342 9.93447 30.9893C9.39364 30.8041 8.86737 30.6029 8.35696 30.3884C7.75795 30.1352 7.17879 29.8647 6.62738 29.5729C2.3537 27.3025 0 24.0807 0 20.4991C0 16.9176 2.3537 13.6958 6.62738 11.4266C7.17879 11.1335 7.75795 10.863 8.35696 10.6099C7.69448 12.8497 7.26209 15.2907 7.08226 17.8289C6.10111 18.7057 5.55367 19.6384 5.55367 20.4991C5.55367 21.3599 6.10111 22.2926 7.08226 23.1706C7.48424 23.529 7.95894 23.8781 8.49712 24.2099C8.72588 24.3511 8.96654 24.4884 9.21778 24.6216C10.3364 25.2159 11.6323 25.7102 13.0419 26.094C13.502 26.2192 13.9741 26.3325 14.4554 26.4337C14.9156 26.531 15.3863 26.6163 15.8637 26.6909C17.3063 26.9134 18.8164 27.032 20.345 27.032C21.8735 27.032 23.3836 26.9134 24.8262 26.6909Z" fill="white" fill-opacity="0.6"/>
<path d="M40.6886 20.4992C40.6886 24.0807 38.3349 27.3025 34.0612 29.573C33.5111 29.8648 32.9319 30.1353 32.3316 30.3884C32.9954 28.1473 33.4278 25.7076 33.6076 23.1693C34.5875 22.2926 35.1349 21.3599 35.1349 20.4992C35.1349 19.6384 34.5875 18.7057 33.6076 17.829C33.2057 17.4706 32.731 17.1201 32.1928 16.7884C31.964 16.6485 31.7234 16.5099 31.4721 16.3766C30.3534 15.7824 29.0576 15.2881 27.648 14.9043C27.1879 14.7791 26.7158 14.6658 26.2345 14.5646C25.773 14.4673 25.3036 14.382 24.8262 14.3087C23.3836 14.0849 21.8735 13.9663 20.3449 13.9663C18.8164 13.9663 17.3063 14.0849 15.8636 14.3087C16.2405 12.6645 16.7668 11.1642 17.4226 9.90773C17.7281 9.32413 18.0441 8.8338 18.3549 8.42608C19.0121 8.3901 19.6758 8.37012 20.3449 8.37012C21.014 8.37012 21.6765 8.3901 22.335 8.42608C22.9036 8.45806 23.4682 8.50336 24.0262 8.56065C24.5776 8.61795 25.1211 8.6899 25.6579 8.77251C27.4536 9.04832 29.166 9.46404 30.7554 10.009C31.2963 10.1942 31.8225 10.3954 32.3329 10.6099C32.9319 10.8631 33.5111 11.1336 34.0612 11.4267C38.3349 13.6958 40.6886 16.9189 40.6886 20.4992Z" fill="white" fill-opacity="0.6"/>
<path d="M30.1591 8.41958C28.4718 7.91326 26.6708 7.54018 24.7984 7.31101C24.2034 7.23772 23.6018 7.1791 22.9948 7.13513C22.1248 6.14647 21.1991 5.59618 20.3436 5.59618C19.4881 5.59618 18.5651 6.14647 17.695 7.13513C17.338 7.54018 16.9916 8.01853 16.6623 8.56082C16.5222 8.79133 16.386 9.03383 16.2537 9.28699C15.4722 10.7806 14.864 12.5887 14.4554 14.5647C14.3589 15.0284 14.2742 15.5027 14.2015 15.9838C13.9794 17.4374 13.863 18.9591 13.863 20.4993C13.863 22.0396 13.9794 23.5612 14.2015 25.0149C13.7255 24.9043 13.2614 24.7817 12.8131 24.6445C11.7222 24.3141 10.7172 23.9117 9.83394 23.4427C9.25477 23.1349 8.76817 22.8178 8.36354 22.5046C8.32784 21.8424 8.30933 21.1735 8.30933 20.4993C8.30933 19.8251 8.32784 19.1563 8.36354 18.494C8.39528 17.9198 8.44023 17.3522 8.49709 16.7885C8.74436 14.3808 9.23097 12.0891 9.93444 10.0092C10.1182 9.4642 10.3179 8.9339 10.5308 8.41958C10.782 7.816 11.0505 7.23239 11.3414 6.67811C13.5933 2.37171 16.7919 0 20.3436 0C23.8953 0 27.0966 2.37171 29.3498 6.67811C29.6394 7.23239 29.9078 7.816 30.1591 8.41958Z" fill="white" fill-opacity="0.6"/>
<path d="M32.3819 20.4995C32.3819 21.1737 32.3621 21.8426 32.3264 22.5048C32.2947 23.079 32.2497 23.6467 32.1915 24.2103C31.9456 26.618 31.4577 28.9097 30.7555 30.9896C30.5717 31.5346 30.372 32.0649 30.1592 32.5792C29.9079 33.1828 29.6395 33.7664 29.3499 34.322C27.0967 38.6284 23.8994 41.0001 20.3437 41.0001C16.788 41.0001 13.5933 38.6284 11.3415 34.322C11.0505 33.7664 10.7821 33.1828 10.5309 32.5792C12.2181 33.0869 14.0191 33.4586 15.8915 33.6891C16.4865 33.7611 17.0869 33.8197 17.6951 33.8637C18.5652 34.8523 19.4895 35.404 20.3437 35.404C21.1979 35.404 22.1248 34.8523 22.9949 33.8637C23.3506 33.4586 23.6971 32.9816 24.0263 32.438C24.1665 32.2075 24.3027 31.965 24.4362 31.7118C25.2177 30.2182 25.826 28.4101 26.2346 26.4341C26.3298 25.9704 26.4157 25.4961 26.4884 25.0151C26.7106 23.5614 26.8283 22.0398 26.8283 20.4995C26.8283 18.9592 26.7106 17.4376 26.4884 15.9839C26.9645 16.0945 27.4286 16.2184 27.8769 16.3543C28.9678 16.6847 29.9727 17.0871 30.856 17.5561C31.4352 17.8639 31.9218 18.1824 32.3264 18.4942C32.3621 19.1577 32.3819 19.8253 32.3819 20.4995Z" fill="white" fill-opacity="0.6"/>
<path d="M81.3865 10.7245C80.5574 10.7245 79.8777 11.1615 79.3647 12.0223L69.4104 28.7228L64.9476 24.1846C67.0144 23.0414 68.1806 20.8642 68.1806 18.0795C68.1806 13.6931 65.4858 10.9696 61.1486 10.9696H47.8264V30.03H52.0882V15.2894H61.1486C63.0289 15.2894 63.9426 16.2181 63.9426 18.1288C63.9426 20.1394 63.0289 21.116 61.1486 21.116H53.1659V25.0667H60.1304L64.617 30.03H73.5571L81.2648 16.8963L84.166 21.8049H79.4334L77.2768 25.5344H86.361L89.0188 30.03H94.1401L83.3818 12.0223C83.1901 11.7011 82.6083 10.7231 81.3838 10.7231L81.3865 10.7245Z" fill="white" fill-opacity="0.6"/>
<path d="M105.255 10.9697H94.3953V30.03H105.255C110.515 30.03 114.481 25.8542 114.481 20.3153C114.481 17.6612 113.551 15.2668 111.864 13.5733C110.191 11.8944 107.843 10.9697 105.254 10.9697H105.255ZM105.255 25.7103H98.6584V15.2894H105.255C108.118 15.2894 110.195 17.4653 110.195 20.4632C110.195 23.4612 108.118 25.7103 105.255 25.7103Z" fill="white" fill-opacity="0.6"/>
<path d="M120.285 10.9697H115.998V30.03H120.285V10.9697Z" fill="white" fill-opacity="0.6"/>
<path d="M138.185 21.5438C138.185 24.4379 137.25 26.0048 132.319 26.0048C127.388 26.0048 126.453 24.4365 126.453 21.5438V10.9697H122.07V21.5438C122.07 24.5551 122.863 26.711 124.494 28.1353C126.141 29.5757 128.669 30.2752 132.222 30.2752C139.261 30.2752 142.399 27.5824 142.399 21.5438V10.9697H138.186V21.5438H138.185Z" fill="white" fill-opacity="0.6"/>
<path d="M157.895 18.4393H149.776C148.729 18.4393 148.152 17.885 148.152 16.8764C148.152 15.8677 148.722 15.2894 149.8 15.2894H163.122V10.9697H149.8C146.121 10.9697 143.744 13.1722 143.744 16.5819C143.744 19.9916 146.158 22.2673 149.751 22.2673H157.895C159.679 22.2673 159.884 23.2427 159.884 23.9768C159.884 25.0947 159.178 25.7117 157.895 25.7117H144.012V30.0314H157.895C161.661 30.0314 164 27.7969 164 24.1994C164 20.6018 161.888 18.4406 157.895 18.4406V18.4393Z" fill="white" fill-opacity="0.6"/>
</g>
<defs>
<clipPath id="clip0_0_580">
<rect width="164" height="41" fill="white"/>
</clipPath>
</defs>
</svg>
