<svg width="161" height="40" viewBox="0 0 161 40" fill="none" xmlns="http://www.w3.org/2000/svg">
<g id="Layer_1" clip-path="url(#clip0_0_883)">
<g id="Group">
<path id="Vector" d="M24.3308 26.0399C23.9602 27.644 23.4457 29.1077 22.8016 30.3322C22.5023 30.9016 22.1926 31.3813 21.888 31.7777C21.2439 31.8128 20.5934 31.8323 19.939 31.8323C19.2845 31.8323 18.6327 31.8128 17.9886 31.7777C17.4301 31.7465 16.878 31.7036 16.3298 31.6465C15.7907 31.5906 15.2568 31.5204 14.7307 31.4398C12.9721 31.1707 11.2926 30.7651 9.73622 30.2334C9.20619 30.0527 8.69041 29.8565 8.19019 29.6472C7.60314 29.4002 7.03553 29.1363 6.49513 28.8516C2.30673 26.6365 0 23.4933 0 19.9991C0 16.5049 2.30673 13.3617 6.49513 11.1479C7.03553 10.8619 7.60314 10.5981 8.19019 10.3511C7.54093 12.5362 7.11717 14.9177 6.94093 17.3941C5.97936 18.2494 5.44285 19.1594 5.44285 19.9991C5.44285 20.8389 5.97936 21.7488 6.94093 22.6055C7.33488 22.9551 7.80012 23.2957 8.32756 23.6194C8.55175 23.7572 8.78761 23.8911 9.03383 24.0211C10.1302 24.6009 11.4002 25.0831 12.7816 25.4575C13.2326 25.5797 13.6952 25.6902 14.167 25.789C14.6179 25.8839 15.0793 25.9671 15.5471 26.0399C16.9609 26.257 18.4409 26.3727 19.939 26.3727C21.437 26.3727 22.917 26.257 24.3308 26.0399Z" fill="#FF7A00"/>
<path id="Vector_2" d="M39.8766 19.9992C39.8766 23.4934 37.5699 26.6367 33.3815 28.8517C32.8424 29.1364 32.2748 29.4003 31.6864 29.6473C32.337 27.4608 32.7607 25.0806 32.937 22.6043C33.8973 21.7489 34.4338 20.839 34.4338 19.9992C34.4338 19.1595 33.8973 18.2495 32.937 17.3942C32.543 17.0445 32.0778 16.7026 31.5504 16.3789C31.3262 16.2425 31.0903 16.1073 30.8441 15.9773C29.7477 15.3975 28.4777 14.9152 27.0963 14.5408C26.6453 14.4187 26.1827 14.3082 25.711 14.2094C25.2587 14.1145 24.7986 14.0313 24.3308 13.9598C22.917 13.7414 21.437 13.6257 19.9389 13.6257C18.4409 13.6257 16.9609 13.7414 15.5471 13.9598C15.9164 12.3557 16.4322 10.892 17.075 9.66613C17.3743 9.09676 17.6841 8.61839 17.9886 8.22061C18.6327 8.18551 19.2832 8.16602 19.9389 8.16602C20.5947 8.16602 21.2439 8.18551 21.8893 8.22061C22.4465 8.25181 22.9999 8.29601 23.5468 8.3519C24.0872 8.4078 24.6198 8.478 25.1459 8.55859C26.9058 8.82768 28.584 9.23325 30.1417 9.76492C30.6717 9.94561 31.1875 10.1419 31.6877 10.3512C32.2748 10.5982 32.8424 10.8621 33.3815 11.148C37.5699 13.3618 39.8766 16.5063 39.8766 19.9992Z" fill="#FF7A00"/>
<path id="Vector_3" d="M29.5572 8.21423C27.9037 7.72026 26.1386 7.35628 24.3036 7.13269C23.7204 7.06119 23.1308 7.004 22.536 6.9611C21.6833 5.99656 20.7761 5.45969 19.9377 5.45969C19.0992 5.45969 18.1946 5.99656 17.3419 6.9611C16.992 7.35628 16.6525 7.82295 16.3298 8.35202C16.1925 8.57691 16.059 8.81349 15.9294 9.06048C15.1635 10.5177 14.5674 12.2817 14.1669 14.2095C14.0723 14.6619 13.9894 15.1246 13.9181 15.5939C13.7004 17.0121 13.5864 18.4966 13.5864 19.9994C13.5864 21.5021 13.7004 22.9866 13.9181 24.4048C13.4516 24.2969 12.9967 24.1773 12.5574 24.0434C11.4883 23.721 10.5034 23.3285 9.63772 22.8709C9.0701 22.5706 8.59321 22.2612 8.19666 21.9557C8.16167 21.3097 8.14352 20.6571 8.14352 19.9994C8.14352 19.3416 8.16167 18.689 8.19666 18.043C8.22776 17.4827 8.27182 16.9289 8.32754 16.3791C8.56988 14.0301 9.04678 11.7942 9.7362 9.76504C9.91634 9.23337 10.112 8.716 10.3207 8.21423C10.5669 7.62536 10.83 7.05599 11.1151 6.51523C13.322 2.31387 16.4568 0 19.9377 0C23.4185 0 26.5559 2.31387 28.7641 6.51523C29.0479 7.05599 29.311 7.62536 29.5572 8.21423Z" fill="#FF7A00"/>
<path id="Vector_4" d="M31.7357 19.9992C31.7357 20.657 31.7162 21.3095 31.6813 21.9556C31.6502 22.5159 31.6061 23.0696 31.5491 23.6195C31.308 25.9685 30.8298 28.2043 30.1417 30.2335C29.9616 30.7652 29.7659 31.2825 29.5573 31.7843C29.311 32.3732 29.048 32.9426 28.7642 33.4846C26.5559 37.686 23.4224 39.9998 19.9377 39.9998C16.453 39.9998 13.322 37.686 11.1151 33.4846C10.83 32.9426 10.5669 32.3732 10.3207 31.7843C11.9743 32.2796 13.7393 32.6423 15.5743 32.8672C16.1575 32.9374 16.7458 32.9946 17.342 33.0374C18.1947 34.002 19.1005 34.5402 19.9377 34.5402C20.7748 34.5402 21.6833 34.002 22.536 33.0374C22.8846 32.6423 23.2241 32.1769 23.5468 31.6465C23.6842 31.4216 23.8176 31.1851 23.9485 30.9381C24.7144 29.4809 25.3105 27.7169 25.711 25.7891C25.8043 25.3367 25.8885 24.8739 25.9598 24.4046C26.1775 22.9864 26.2928 21.5019 26.2928 19.9992C26.2928 18.4965 26.1775 17.012 25.9598 15.5938C26.4263 15.7016 26.8812 15.8225 27.3205 15.9551C28.3896 16.2775 29.3745 16.6701 30.2402 17.1277C30.8078 17.4279 31.2847 17.7386 31.6813 18.0428C31.7162 18.6902 31.7357 19.3414 31.7357 19.9992Z" fill="#FF7A00"/>
</g>
<g id="Group_2">
<path id="Vector_5" d="M79.7623 10.4632C78.9498 10.4632 78.2837 10.8896 77.7809 11.7293L68.0252 28.0226L63.6515 23.5951C65.677 22.4797 66.82 20.3556 66.82 17.6388C66.82 13.3594 64.1789 10.7024 59.9283 10.7024H46.872V29.2978H51.0487V14.9168H59.9283C61.7711 14.9168 62.6666 15.8228 62.6666 17.6869C62.6666 19.6485 61.7711 20.6013 59.9283 20.6013H52.1049V24.4556H58.9305L63.3275 29.2978H72.0892L79.6431 16.4845L82.4863 21.2734H77.8483L75.7346 24.9119H84.6376L87.2424 29.2978H92.2614L81.7179 11.7293C81.53 11.4161 80.9597 10.4619 79.7597 10.4619L79.7623 10.4632Z" fill="#252525"/>
<path id="Vector_6" d="M103.155 10.7026H92.5115V29.2981H103.155C108.31 29.2981 112.197 25.2241 112.197 19.8203C112.197 17.2309 111.285 14.8949 109.632 13.2427C107.993 11.6048 105.691 10.7026 103.154 10.7026H103.155ZM103.155 25.0837H96.6896V14.917H103.155C105.961 14.917 107.996 17.0398 107.996 19.9646C107.996 22.8894 105.961 25.0837 103.155 25.0837Z" fill="#252525"/>
<path id="Vector_7" d="M117.884 10.7026H113.683V29.2981H117.884V10.7026Z" fill="#252525"/>
<path id="Vector_8" d="M135.427 21.0188C135.427 23.8423 134.511 25.371 129.678 25.371C124.846 25.371 123.93 23.841 123.93 21.0188V10.7026H119.634V21.0188C119.634 23.9567 120.411 26.06 122.009 27.4496C123.624 28.8548 126.102 29.5373 129.584 29.5373C136.482 29.5373 139.557 26.9101 139.557 21.0188V10.7026H135.428V21.0188H135.427Z" fill="#252525"/>
<path id="Vector_9" d="M154.744 17.99H146.787C145.761 17.99 145.196 17.4492 145.196 16.4652C145.196 15.4812 145.754 14.917 146.81 14.917H159.867V10.7026H146.81C143.205 10.7026 140.875 12.8514 140.875 16.1779C140.875 19.5044 143.241 21.7247 146.762 21.7247H154.744C156.492 21.7247 156.693 22.6762 156.693 23.3925C156.693 24.4831 156.001 25.085 154.744 25.085H141.138V29.2994H154.744C158.435 29.2994 160.727 27.1194 160.727 23.6096C160.727 20.0998 158.658 17.9913 154.744 17.9913V17.99Z" fill="#252525"/>
</g>
</g>
<defs>
<clipPath id="clip0_0_883">
<rect width="160.727" height="40" fill="white"/>
</clipPath>
</defs>
</svg>
