<svg width="90" height="23" viewBox="0 0 90 23" fill="none" xmlns="http://www.w3.org/2000/svg">
<g id="Layer_1" clip-path="url(#clip0_305_715)">
<g id="Group">
<path id="Vector" d="M13.6242 14.9732C13.4166 15.8956 13.1285 16.7372 12.7679 17.4413C12.6003 17.7687 12.4268 18.0445 12.2563 18.2725C11.8956 18.2927 11.5314 18.3039 11.1649 18.3039C10.7985 18.3039 10.4335 18.2927 10.0728 18.2725C9.76005 18.2545 9.45092 18.2299 9.14397 18.197C8.8421 18.1648 8.54313 18.1245 8.24851 18.0781C7.2638 17.9234 6.32335 17.6902 5.45184 17.3845C5.15505 17.2806 4.86624 17.1677 4.58614 17.0474C4.25741 16.9054 3.93958 16.7536 3.63698 16.59C1.29166 15.3163 0 13.5089 0 11.4998C0 9.49061 1.29166 7.68326 3.63698 6.41034C3.93958 6.2459 4.25741 6.09417 4.58614 5.95215C4.22258 7.20862 3.98529 8.57797 3.8866 10.0019C3.34817 10.4937 3.04775 11.0169 3.04775 11.4998C3.04775 11.9826 3.34817 12.5059 3.8866 12.9984C4.1072 13.1995 4.36771 13.3953 4.66305 13.5814C4.78859 13.6607 4.92066 13.7377 5.05854 13.8124C5.67244 14.1458 6.38358 14.4231 7.15713 14.6383C7.40966 14.7086 7.66871 14.7721 7.93285 14.8289C8.18538 14.8835 8.44371 14.9313 8.70567 14.9732C9.49736 15.098 10.3261 15.1646 11.1649 15.1646C12.0038 15.1646 12.8325 15.098 13.6242 14.9732Z" fill="white"/>
<path id="Vector_2" d="M22.329 11.4994C22.329 13.5086 21.0373 15.3159 18.692 16.5896C18.3901 16.7533 18.0723 16.905 17.7429 17.047C18.1071 15.7898 18.3444 14.4212 18.4431 12.9973C18.9808 12.5055 19.2813 11.9823 19.2813 11.4994C19.2813 11.0166 18.9808 10.4933 18.4431 10.0015C18.2225 9.80044 17.962 9.60386 17.6667 9.41775C17.5411 9.33926 17.4091 9.26153 17.2712 9.18678C16.6573 8.85342 15.9461 8.57611 15.1726 8.36084C14.9201 8.29058 14.661 8.22705 14.3969 8.17024C14.1436 8.11568 13.886 8.06784 13.6241 8.02673C12.8324 7.90116 12.0037 7.83463 11.1648 7.83463C10.326 7.83463 9.49726 7.90116 8.70557 8.02673C8.91238 7.10437 9.20119 6.26273 9.56111 5.55788C9.72874 5.23049 9.90217 4.95543 10.0727 4.72671C10.4333 4.70652 10.7976 4.69531 11.1648 4.69531C11.532 4.69531 11.8955 4.70652 12.2569 4.72671C12.569 4.74464 12.8788 4.77006 13.185 4.8022C13.4876 4.83434 13.7859 4.8747 14.0805 4.92104C15.0659 5.07577 16.0056 5.30897 16.8779 5.61468C17.1747 5.71858 17.4635 5.83145 17.7436 5.95179C18.0723 6.0938 18.3901 6.24554 18.692 6.40998C21.0373 7.6829 22.329 9.491 22.329 11.4994Z" fill="white"/>
<path id="Vector_3" d="M16.5508 4.72318C15.6248 4.43915 14.6365 4.22986 13.609 4.1013C13.2824 4.06019 12.9523 4.0273 12.6192 4.00263C12.1417 3.44802 11.6337 3.13932 11.1642 3.13932C10.6947 3.13932 10.1882 3.44802 9.71075 4.00263C9.51483 4.22986 9.3247 4.4982 9.14402 4.80241C9.0671 4.93172 8.99235 5.06776 8.91979 5.20978C8.49093 6.04768 8.15713 7.06197 7.9329 8.17045C7.87993 8.43057 7.83349 8.69666 7.79357 8.96649C7.67166 9.78197 7.60781 10.6356 7.60781 11.4996C7.60781 12.3637 7.67166 13.2173 7.79357 14.0328C7.53234 13.9707 7.27763 13.902 7.03164 13.825C6.43297 13.6396 5.88148 13.4139 5.39674 13.1508C5.0789 12.9781 4.81186 12.8002 4.58981 12.6245C4.57022 12.2531 4.56006 11.8778 4.56006 11.4996C4.56006 11.1214 4.57022 10.7462 4.58981 10.3747C4.60723 10.0526 4.6319 9.73413 4.6631 9.41796C4.7988 8.0673 5.06584 6.78168 5.45189 5.6149C5.55275 5.30919 5.66233 5.0117 5.77916 4.72318C5.91703 4.38458 6.06434 4.0572 6.22398 3.74625C7.45977 1.33047 9.21513 0 11.1642 0C13.1133 0 14.8702 1.33047 16.1067 3.74625C16.2656 4.0572 16.4129 4.38458 16.5508 4.72318Z" fill="white"/>
<path id="Vector_4" d="M17.7705 11.4994C17.7705 11.8777 17.7596 12.2529 17.74 12.6244C17.7226 12.9465 17.6979 13.2649 17.666 13.5811C17.531 14.9318 17.2633 16.2174 16.8779 17.3842C16.7771 17.6899 16.6675 17.9874 16.5507 18.2759C16.4128 18.6145 16.2655 18.9419 16.1066 19.2536C14.8701 21.6693 13.1154 22.9998 11.1641 22.9998C9.21285 22.9998 7.45967 21.6693 6.22388 19.2536C6.06423 18.9419 5.91693 18.6145 5.77905 18.2759C6.70499 18.5607 7.69333 18.7692 8.72086 18.8985C9.0474 18.9389 9.37685 18.9718 9.71065 18.9964C10.1881 19.551 10.6954 19.8605 11.1641 19.8605C11.6329 19.8605 12.1416 19.551 12.6191 18.9964C12.8143 18.7692 13.0044 18.5016 13.1851 18.1967C13.262 18.0673 13.3367 17.9313 13.41 17.7893C13.8389 16.9514 14.1727 15.9371 14.3969 14.8286C14.4492 14.5685 14.4963 14.3024 14.5363 14.0326C14.6582 13.2171 14.7227 12.3635 14.7227 11.4994C14.7227 10.6354 14.6582 9.78178 14.5363 8.96631C14.7975 9.02835 15.0522 9.09786 15.2982 9.1741C15.8969 9.35947 16.4483 9.5852 16.9331 9.84831C17.2509 10.021 17.518 10.1996 17.74 10.3745C17.7596 10.7468 17.7705 11.1212 17.7705 11.4994Z" fill="white"/>
</g>
<g id="Group_2">
<path id="Vector_5" d="M44.6632 6.01637C44.2082 6.01637 43.8352 6.26154 43.5537 6.7444L38.0909 16.113L35.6419 13.5672C36.7761 12.9259 37.4161 11.7045 37.4161 10.1423C37.4161 7.68171 35.9372 6.1539 33.5571 6.1539H26.2461V16.8463H28.5849V8.57716H33.5571C34.5889 8.57716 35.0904 9.09814 35.0904 10.17C35.0904 11.2979 34.5889 11.8458 33.5571 11.8458H29.1763V14.062H32.9983L35.4605 16.8463H40.3666L44.5964 9.47859L46.1885 12.2322H43.5914L42.4079 14.3244H47.3931L48.8517 16.8463H51.6621L45.7582 6.7444C45.653 6.56426 45.3337 6.01562 44.6617 6.01562L44.6632 6.01637Z" fill="white"/>
<path id="Vector_6" d="M57.762 6.15381H51.8022V16.8462H57.762C60.6487 16.8462 62.8249 14.5037 62.8249 11.3965C62.8249 9.90754 62.3148 8.56436 61.3889 7.61434C60.4709 6.67254 59.1822 6.15381 57.7613 6.15381H57.762ZM57.762 14.4229H54.1418V8.57706H57.762C59.3331 8.57706 60.4731 9.79766 60.4731 11.4794C60.4731 13.1612 59.3331 14.4229 57.762 14.4229Z" fill="white"/>
<path id="Vector_7" d="M66.0098 6.15381H63.6572V16.8462H66.0098V6.15381Z" fill="white"/>
<path id="Vector_8" d="M75.8331 12.0856C75.8331 13.7091 75.32 14.5881 72.614 14.5881C69.9081 14.5881 69.395 13.7084 69.395 12.0856V6.15381H66.9895V12.0856C66.9895 13.7749 67.4249 14.9843 68.3196 15.7833C69.2238 16.5913 70.6112 16.9837 72.5611 16.9837C76.4237 16.9837 78.1457 15.4731 78.1457 12.0856V6.15381H75.8338V12.0856H75.8331Z" fill="white"/>
<path id="Vector_9" d="M86.6495 10.3441H82.194C81.6193 10.3441 81.3029 10.0331 81.3029 9.46729C81.3029 8.90146 81.6156 8.57706 82.207 8.57706H89.518V6.15381H82.207C80.1883 6.15381 78.8835 7.38935 78.8835 9.3021C78.8835 11.2148 80.2086 12.4915 82.1802 12.4915H86.6495C87.6284 12.4915 87.7409 13.0386 87.7409 13.4505C87.7409 14.0776 87.3534 14.4237 86.6495 14.4237H79.0309V16.8469H86.6495C88.7162 16.8469 89.9998 15.5934 89.9998 13.5753C89.9998 11.5572 88.841 10.3448 86.6495 10.3448V10.3441Z" fill="white"/>
</g>
</g>
<defs>
<clipPath id="clip0_305_715">
<rect width="90" height="23" fill="white"/>
</clipPath>
</defs>
</svg>
