<svg width="150" height="37" viewBox="0 0 150 37" fill="none" xmlns="http://www.w3.org/2000/svg">
<g clip-path="url(#clip0_127_4423)">
<path d="M22.7069 24.0871C22.361 25.5709 21.8809 26.9248 21.2798 28.0575C21.0004 28.5842 20.7114 29.0279 20.4272 29.3946C19.8261 29.4271 19.219 29.4451 18.6082 29.4451C17.9974 29.4451 17.3891 29.4271 16.788 29.3946C16.2668 29.3658 15.7515 29.3261 15.24 29.2732C14.7368 29.2215 14.2385 29.1565 13.7475 29.082C12.1063 28.8331 10.5389 28.4579 9.0864 27.9661C8.59175 27.799 8.1104 27.6174 7.64356 27.4238C7.09569 27.1954 6.56596 26.9513 6.06163 26.6879C2.15277 24.639 0 21.7315 0 18.4994C0 15.2673 2.15277 12.3598 6.06163 10.312C6.56596 10.0475 7.09569 9.80341 7.64356 9.57495C7.03764 11.5962 6.64216 13.7991 6.47767 16.0897C5.58028 16.8809 5.07958 17.7226 5.07958 18.4994C5.07958 19.2762 5.58028 20.1179 6.47767 20.9103C6.84534 21.2337 7.27952 21.5488 7.77176 21.8482C7.98099 21.9756 8.2011 22.0995 8.43089 22.2197C9.45407 22.756 10.6393 23.2021 11.9285 23.5484C12.3494 23.6614 12.7812 23.7636 13.2214 23.855C13.6423 23.9428 14.0729 24.0198 14.5095 24.0871C15.8289 24.2879 17.2101 24.3949 18.6082 24.3949C20.0063 24.3949 21.3875 24.2879 22.7069 24.0871Z" fill="white" fill-opacity="0.3"/>
<path d="M37.2152 18.4994C37.2152 21.7316 35.0625 24.6391 31.1536 26.688C30.6505 26.9513 30.1208 27.1954 29.5717 27.4239C30.1788 25.4014 30.5743 23.1997 30.7388 20.9091C31.635 20.1179 32.1357 19.2762 32.1357 18.4994C32.1357 17.7227 31.635 16.881 30.7388 16.0898C30.3711 15.7663 29.9369 15.4501 29.4447 15.1507C29.2355 15.0244 29.0153 14.8994 28.7856 14.7791C27.7624 14.2428 26.5772 13.7967 25.2879 13.4504C24.867 13.3374 24.4353 13.2352 23.995 13.1438C23.5729 13.056 23.1436 12.9791 22.707 12.9129C21.3875 12.7109 20.0064 12.6039 18.6083 12.6039C17.2102 12.6039 15.829 12.7109 14.5095 12.9129C14.8542 11.4291 15.3356 10.0752 15.9354 8.94132C16.2148 8.41465 16.5039 7.97216 16.7881 7.60421C17.3892 7.57175 17.9963 7.55371 18.6083 7.55371C19.2202 7.55371 19.8261 7.57175 20.4284 7.60421C20.9485 7.63307 21.4649 7.67395 21.9753 7.72566C22.4796 7.77736 22.9767 7.84229 23.4677 7.91684C25.1101 8.16575 26.6763 8.54091 28.1301 9.0327C28.6247 9.19984 29.1061 9.38141 29.5729 9.575C30.1208 9.80346 30.6505 10.0476 31.1536 10.3121C35.0625 12.3598 37.2152 15.2685 37.2152 18.4994Z" fill="white" fill-opacity="0.3"/>
<path d="M27.5846 7.59816C26.0414 7.14124 24.3942 6.80456 22.6816 6.59774C22.1374 6.53161 21.5871 6.4787 21.032 6.43902C20.2362 5.54681 19.3896 5.05021 18.6071 5.05021C17.8246 5.05021 16.9804 5.54681 16.1846 6.43902C15.858 6.80456 15.5412 7.23623 15.24 7.72562C15.1118 7.93364 14.9873 8.15248 14.8663 8.38094C14.1515 9.72887 13.5952 11.3606 13.2215 13.1438C13.1332 13.5622 13.0558 13.9903 12.9893 14.4244C12.7861 15.7362 12.6797 17.1094 12.6797 18.4994C12.6797 19.8894 12.7861 21.2626 12.9893 22.5744C12.5539 22.4746 12.1294 22.364 11.7194 22.2402C10.7216 21.942 9.80246 21.5788 8.99456 21.1556C8.46484 20.8778 8.01977 20.5916 7.64968 20.3091C7.61703 19.7115 7.6001 19.1078 7.6001 18.4994C7.6001 17.891 7.61703 17.2874 7.64968 16.6897C7.67871 16.1715 7.71983 15.6593 7.77184 15.1506C7.998 12.9778 8.44307 10.9097 9.08648 9.03266C9.25459 8.54087 9.43721 8.0623 9.63193 7.59816C9.86172 7.05346 10.1072 6.5268 10.3733 6.02658C12.433 2.14033 15.3586 0 18.6071 0C21.8556 0 24.7836 2.14033 26.8445 6.02658C27.1093 6.5268 27.3548 7.05346 27.5846 7.59816Z" fill="white" fill-opacity="0.3"/>
<path d="M29.6176 18.4994C29.6176 19.1078 29.5994 19.7114 29.5668 20.309C29.5377 20.8273 29.4966 21.3395 29.4434 21.8481C29.2185 24.0209 28.7722 26.0891 28.13 27.9661C27.9619 28.4579 27.7792 28.9365 27.5845 29.4006C27.3547 29.9453 27.1092 30.472 26.8444 30.9734C24.7835 34.8596 21.8591 37 18.607 37C15.3548 37 12.4329 34.8596 10.3732 30.9734C10.1071 30.472 9.86163 29.9453 9.63184 29.4006C11.1751 29.8587 12.8223 30.1942 14.5348 30.4022C15.0791 30.4672 15.6282 30.5201 16.1845 30.5597C16.9803 31.4519 17.8257 31.9497 18.607 31.9497C19.3883 31.9497 20.2361 31.4519 21.0319 30.5597C21.3572 30.1942 21.6741 29.7637 21.9752 29.2731C22.1034 29.0651 22.228 28.8463 22.3501 28.6178C23.0649 27.2699 23.6212 25.6382 23.995 23.855C24.082 23.4365 24.1606 23.0085 24.2272 22.5744C24.4303 21.2625 24.538 19.8894 24.538 18.4994C24.538 17.1093 24.4303 15.7362 24.2272 14.4243C24.6626 14.5241 25.0871 14.6359 25.4971 14.7586C26.4948 15.0568 27.414 15.4199 28.2219 15.8432C28.7516 16.1209 29.1967 16.4083 29.5668 16.6897C29.5994 17.2885 29.6176 17.8909 29.6176 18.4994Z" fill="white" fill-opacity="0.3"/>
<path d="M74.4388 9.67833C73.6805 9.67833 73.0589 10.0727 72.5896 10.8495L63.4851 25.9208L59.4033 21.8253C61.2936 20.7936 62.3603 18.8288 62.3603 16.3157C62.3603 12.3573 59.8955 9.89957 55.9286 9.89957H43.7437V27.1003H47.6416V13.7979H55.9286C57.6484 13.7979 58.4841 14.6359 58.4841 16.3602C58.4841 18.1747 57.6484 19.0561 55.9286 19.0561H48.6273V22.6213H54.9973L59.1009 27.1003H67.2778L74.3276 15.248L76.981 19.6777H72.6525L70.6799 23.0433H78.9887L81.4196 27.1003H86.1037L76.2639 10.8495C76.0885 10.5597 75.5563 9.67712 74.4364 9.67712L74.4388 9.67833Z" fill="white" fill-opacity="0.3"/>
<path d="M96.2702 9.89954H86.3372V27.1003H96.2702C101.081 27.1003 104.708 23.3319 104.708 18.3334C104.708 15.9381 103.858 13.7774 102.315 12.2491C100.785 10.734 98.637 9.89954 96.2689 9.89954H96.2702ZM96.2702 23.202H90.2363V13.7978H96.2702C98.8886 13.7978 100.789 15.7614 100.789 18.4669C100.789 21.1723 98.8886 23.202 96.2702 23.202Z" fill="white" fill-opacity="0.3"/>
<path d="M110.016 9.89954H106.095V27.1003H110.016V9.89954Z" fill="white" fill-opacity="0.3"/>
<path d="M126.388 19.442C126.388 22.0537 125.533 23.4678 121.023 23.4678C116.513 23.4678 115.658 22.0525 115.658 19.442V9.89954H111.649V19.442C111.649 22.1595 112.375 24.1051 113.866 25.3905C115.373 26.6903 117.685 27.3216 120.935 27.3216C127.373 27.3216 130.243 24.8914 130.243 19.442V9.89954H126.39V19.442H126.388Z" fill="white" fill-opacity="0.3"/>
<path d="M144.416 16.6404H136.99C136.032 16.6404 135.505 16.1402 135.505 15.2299C135.505 14.3197 136.026 13.7978 137.012 13.7978H149.197V9.89954H137.012C133.647 9.89954 131.473 11.8872 131.473 14.9642C131.473 18.0412 133.681 20.0949 136.967 20.0949H144.416C146.048 20.0949 146.235 20.9751 146.235 21.6377C146.235 22.6465 145.589 23.2032 144.416 23.2032H131.718V27.1015H144.416C147.861 27.1015 150 25.085 150 21.8385C150 18.5919 148.069 16.6416 144.416 16.6416V16.6404Z" fill="white" fill-opacity="0.3"/>
</g>
<defs>
<clipPath id="clip0_127_4423">
<rect width="150" height="37" fill="white"/>
</clipPath>
</defs>
</svg>
