<svg width="272" height="150" viewBox="0 0 272 150" fill="none" xmlns="http://www.w3.org/2000/svg">
<rect x="1" y="1" width="270" height="148" rx="7" stroke="#595959" stroke-width="2"/>
<path d="M80.5028 51L72.5514 55.5936L77.8523 58.6564V64.7809L85.8028 60.1873V54.0627L80.5028 51Z" fill="#595959"/>
<path d="M69.9018 57.1246L54 66.3127V78.5619L64.6009 84.6864V72.4373L75.2019 66.3127V60.1873L69.9018 57.1246Z" fill="#595959"/>
<path d="M75.2019 66.3127V78.5619L54 90.8119V96.9381L59.3 100L85.8028 84.6864V72.4373L75.2019 66.3127Z" fill="#595959"/>
<path d="M99.14 82.3161C98.3216 81.9805 97.6679 81.4844 97.1789 80.8268C96.689 80.1693 96.4309 79.3775 96.4046 78.4514H100.066C100.12 78.9748 100.3 79.3741 100.61 79.6493C100.918 79.9246 101.32 80.0622 101.817 80.0622C102.313 80.0622 102.729 79.945 103.024 79.7096C103.319 79.4752 103.466 79.1489 103.466 78.7335C103.466 78.3851 103.348 78.0963 103.114 77.8678C102.879 77.6401 102.591 77.4523 102.249 77.3045C101.907 77.1567 101.42 76.9893 100.79 76.8015C99.8786 76.5195 99.134 76.2383 98.5576 75.9562C97.9811 75.6742 97.4845 75.2587 97.0694 74.7082C96.6534 74.1577 96.4454 73.4398 96.4454 72.5545C96.4454 71.2394 96.9216 70.2097 97.8733 69.4646C98.8258 68.7196 100.066 68.3474 101.595 68.3474C103.124 68.3474 104.404 68.7196 105.357 69.4646C106.309 70.2097 106.819 71.2462 106.886 72.5749H103.164C103.137 72.1187 102.97 71.7593 102.661 71.4977C102.352 71.236 101.957 71.1052 101.475 71.1052C101.059 71.1052 100.723 71.2156 100.469 71.4373C100.214 71.6591 100.087 71.9777 100.087 72.394C100.087 72.8502 100.3 73.2062 100.73 73.461C101.159 73.7159 101.829 73.9912 102.741 74.286C103.653 74.5952 104.394 74.89 104.964 75.1721C105.534 75.4541 106.027 75.8636 106.443 76.3997C106.858 76.9366 107.067 77.6273 107.067 78.4727C107.067 79.2781 106.862 80.0095 106.453 80.6671C106.044 81.3247 105.45 81.8489 104.673 82.2371C103.895 82.6262 102.976 82.8208 101.917 82.8208C100.857 82.8208 99.9584 82.6534 99.1408 82.3178L99.14 82.3161Z" fill="#595959"/>
<path d="M119.759 71.4458V82.6789H116.319V81.1488C115.97 81.6458 115.497 82.0443 114.9 82.3467C114.303 82.6483 113.643 82.7995 112.919 82.7995C112.06 82.7995 111.302 82.6084 110.645 82.2261C109.988 81.8438 109.479 81.2898 109.116 80.5652C108.754 79.8405 108.573 78.9883 108.573 78.0088V71.4458H111.992V77.5458C111.992 78.2976 112.187 78.8813 112.576 79.2967C112.964 79.713 113.487 79.9212 114.144 79.9212C114.802 79.9212 115.345 79.713 115.734 79.2967C116.123 78.8813 116.317 78.2968 116.317 77.5458V71.4458H119.759Z" fill="#595959"/>
<path d="M126.558 71.7678C127.148 71.4458 127.838 71.2844 128.63 71.2844C129.556 71.2844 130.394 71.5197 131.145 71.9887C131.895 72.4585 132.489 73.1297 132.925 74.0022C133.361 74.8747 133.579 75.8874 133.579 77.042C133.579 78.1965 133.361 79.2126 132.925 80.0919C132.489 80.9713 131.895 81.6492 131.145 82.125C130.394 82.6016 129.556 82.8395 128.63 82.8395C127.853 82.8395 127.165 82.678 126.568 82.3561C125.971 82.0341 125.505 81.6178 125.17 81.108V88.0329H121.73V71.445H125.17V73.0354C125.505 72.5121 125.967 72.0898 126.558 71.7678ZM129.365 75.0191C128.888 74.5289 128.302 74.2843 127.605 74.2843C126.908 74.2843 126.341 74.5332 125.864 75.0293C125.388 75.5263 125.15 76.2043 125.15 77.0624C125.15 77.9204 125.388 78.5992 125.864 79.0954C126.341 79.5924 126.92 79.8405 127.605 79.8405C128.289 79.8405 128.872 79.589 129.354 79.0852C129.837 78.5823 130.079 77.9009 130.079 77.042C130.079 76.1831 129.841 75.5085 129.365 75.0191Z" fill="#595959"/>
<path d="M145.406 77.8873H137.622C137.675 78.5848 137.9 79.1183 138.296 79.4879C138.691 79.8575 139.177 80.041 139.754 80.041C140.612 80.041 141.209 79.6791 141.545 78.9544H145.206C145.019 79.6926 144.68 80.357 144.19 80.9475C143.7 81.5379 143.087 82.0009 142.349 82.3365C141.612 82.6721 140.786 82.8403 139.875 82.8403C138.774 82.8403 137.796 82.6058 136.937 82.1352C136.079 81.6654 135.408 80.995 134.926 80.1225C134.443 79.25 134.202 78.2297 134.202 77.0624C134.202 75.8951 134.44 74.8747 134.916 74.0022C135.392 73.1297 136.059 72.4594 136.918 71.9887C137.776 71.5189 138.762 71.2844 139.875 71.2844C140.988 71.2844 141.927 71.513 142.771 71.9692C143.616 72.4254 144.277 73.0762 144.753 73.9223C145.229 74.7677 145.467 75.754 145.467 76.8814C145.467 77.2034 145.446 77.5381 145.406 77.8873ZM141.946 75.9749C141.946 75.3845 141.745 74.9146 141.343 74.5655C140.94 74.2163 140.438 74.0421 139.834 74.0421C139.23 74.0421 138.771 74.2095 138.375 74.5451C137.98 74.8807 137.734 75.3573 137.641 75.9741L141.946 75.9749Z" fill="#595959"/>
<path d="M151.724 71.8587C152.327 71.5036 152.998 71.3252 153.736 71.3252V74.969H152.79C151.932 74.969 151.288 75.1534 150.859 75.5229C150.429 75.8925 150.215 76.5399 150.215 77.4659V82.6797H146.775V71.4467H150.215V73.3191C150.617 72.7024 151.12 72.2147 151.724 71.8587Z" fill="#595959"/>
<path d="M156.833 82.3365C156.068 82.0009 155.465 81.5413 155.022 80.9577C154.579 80.374 154.331 79.7198 154.277 78.9951H157.677C157.717 79.3842 157.899 79.6994 158.221 79.9416C158.542 80.1828 158.938 80.3043 159.408 80.3043C159.836 80.3043 160.168 80.2202 160.403 80.0529C160.638 79.8855 160.756 79.6672 160.756 79.3987C160.756 79.0767 160.588 78.8388 160.253 78.6842C159.918 78.5304 159.374 78.3588 158.624 78.1711C157.819 77.9833 157.148 77.7854 156.612 77.5772C156.075 77.3691 155.613 77.0411 155.224 76.5909C154.834 76.1414 154.641 75.534 154.641 74.7694C154.641 74.1254 154.818 73.5383 155.174 73.0082C155.529 72.4781 156.052 72.0592 156.743 71.75C157.433 71.4416 158.255 71.287 159.207 71.287C160.616 71.287 161.725 71.6361 162.537 72.3336C163.348 73.0311 163.814 73.9572 163.935 75.1117H160.757C160.703 74.7226 160.532 74.4142 160.244 74.1857C159.955 73.9572 159.576 73.8433 159.107 73.8433C158.705 73.8433 158.396 73.9206 158.182 74.0753C157.967 74.2299 157.86 74.4406 157.86 74.709C157.86 75.031 158.031 75.2723 158.373 75.4337C158.715 75.5952 159.248 75.7557 159.972 75.9171C160.803 76.1321 161.481 76.3436 162.004 76.5509C162.527 76.7591 162.986 77.0946 163.381 77.5577C163.777 78.0207 163.982 78.6417 163.995 79.4199C163.995 80.0775 163.811 80.6646 163.443 81.1811C163.073 81.6976 162.544 82.1037 161.853 82.3994C161.162 82.6942 160.362 82.8429 159.45 82.8429C158.471 82.8429 157.599 82.6755 156.835 82.3391L156.833 82.3365Z" fill="#595959"/>
<path d="M165.634 74.0022C166.11 73.1297 166.773 72.4594 167.625 71.9887C168.477 71.5189 169.452 71.2844 170.553 71.2844C171.961 71.2844 173.138 71.654 174.083 72.3914C175.029 73.1297 175.649 74.1696 175.944 75.5119H172.283C171.974 74.653 171.378 74.2231 170.492 74.2231C169.862 74.2231 169.359 74.4686 168.984 74.958C168.609 75.4482 168.421 76.1491 168.421 77.0615C168.421 77.974 168.609 78.6757 168.984 79.1651C169.359 79.6553 169.862 79.8999 170.492 79.8999C171.378 79.8999 171.974 79.4709 172.283 78.6111H175.944C175.649 79.9271 175.026 80.9602 174.073 81.7112C173.121 82.4631 171.947 82.8386 170.553 82.8386C169.452 82.8386 168.477 82.6041 167.625 82.1335C166.774 81.6637 166.11 80.9933 165.634 80.1208C165.158 79.2483 164.92 78.228 164.92 77.0607C164.92 75.8934 165.158 74.873 165.634 74.0005V74.0022Z" fill="#595959"/>
<path d="M182.22 71.8587C182.823 71.5036 183.494 71.3252 184.232 71.3252V74.969H183.286C182.428 74.969 181.784 75.1534 181.355 75.5229C180.925 75.8925 180.711 76.5399 180.711 77.4659V82.6797H177.271V71.4467H180.711V73.3191C181.114 72.7024 181.616 72.2147 182.22 71.8587Z" fill="#595959"/>
<path d="M196.844 71.4458L189.804 88.0134H186.102L188.677 82.2966L184.111 71.4458H187.953L190.548 78.4718L193.123 71.4458H196.844Z" fill="#595959"/>
<path d="M202.416 71.7678C203.006 71.4458 203.696 71.2844 204.488 71.2844C205.413 71.2844 206.251 71.5197 207.003 71.9887C207.753 72.4585 208.347 73.1297 208.783 74.0022C209.218 74.8747 209.437 75.8874 209.437 77.042C209.437 78.1965 209.218 79.2126 208.783 80.0919C208.347 80.9713 207.753 81.6492 207.003 82.125C206.251 82.6016 205.413 82.8395 204.488 82.8395C203.71 82.8395 203.023 82.678 202.426 82.3561C201.829 82.0341 201.363 81.6178 201.028 81.108V88.0329H197.588V71.445H201.028V73.0354C201.363 72.5121 201.825 72.0898 202.416 71.7678ZM205.222 75.0191C204.746 74.5289 204.16 74.2843 203.463 74.2843C202.766 74.2843 202.198 74.5332 201.722 75.0293C201.246 75.5263 201.008 76.2043 201.008 77.0624C201.008 77.9204 201.246 78.5992 201.722 79.0954C202.198 79.5924 202.778 79.8405 203.463 79.8405C204.147 79.8405 204.73 79.589 205.212 79.0852C205.695 78.5823 205.936 77.9009 205.936 77.042C205.936 76.1831 205.699 75.5085 205.222 75.0191Z" fill="#595959"/>
<path d="M217 79.7598V82.6789H215.25C214.003 82.6789 213.03 82.3739 212.333 81.7631C211.635 81.1522 211.287 80.1557 211.287 78.7734V74.3046H209.92V71.4458H211.287V68.7077H214.727V71.4458H216.98V74.3046H214.727V78.8142C214.727 79.1498 214.808 79.391 214.968 79.5389C215.13 79.6867 215.397 79.7606 215.773 79.7606L217 79.7598Z" fill="#595959"/>
</svg>
